<?xml version="1.0" encoding="utf-8"?>
<!-- Generator: Adobe Illustrator 22.1.0, SVG Export Plug-In . SVG Version: 6.00 Build 0)  -->
<svg version="1.1" id="Layer_1" xmlns="http://www.w3.org/2000/svg" xmlns:xlink="http://www.w3.org/1999/xlink" x="0px" y="0px"
	 viewBox="0 0 64 61.2" style="enable-background:new 0 0 64 61.2;" xml:space="preserve">
<title>certified, quality, check, good</title>
<g>
	<path d="M57.1,30.3l4-7.1c0.3-0.5,0.1-1.1-0.4-1.3l-7-4.1l-0.1-8.1c0-0.6-0.4-1-1-1l-8.1-0.1l-4.2-7c-0.3-0.5-0.9-0.6-1.3-0.4
		l-7.1,4l-7.1-4c-0.5-0.3-1.1-0.1-1.3,0.4l-4.1,7l-8.1,0.1c-0.6,0-1,0.4-1,1l-0.1,8.1l-7,4.1c-0.5,0.3-0.6,0.9-0.4,1.3l4,7.1l-4,7.1
		c-0.3,0.5-0.1,1.1,0.4,1.3l7,4.2l0.1,8.1c0,0.6,0.4,1,1,1l8.1,0.1l4.1,7c0.3,0.5,0.9,0.6,1.3,0.4l7.1-4l7.1,4
		c0.1,0.1,0.3,0.1,0.5,0.1c0.4,0,0.7-0.2,0.9-0.5l4.2-7l8.1-0.1c0.6,0,1-0.4,1-1l0.1-8.1l7-4.2c0.5-0.3,0.6-0.9,0.4-1.3L57.1,30.3z
		 M52.3,41.4c-0.3,0.2-0.5,0.5-0.5,0.8L51.7,50L44,50.1c-0.3,0-0.7,0.2-0.8,0.5l-3.9,6.6l-6.7-3.8c-0.3-0.2-0.7-0.2-1,0l-6.7,3.8
		l-3.9-6.6c-0.2-0.3-0.5-0.5-0.9-0.5L12.3,50l-0.1-7.7c0-0.3-0.2-0.7-0.5-0.8l-6.6-4l3.8-6.7c0.2-0.3,0.2-0.7,0-1l-3.8-6.7l6.6-3.9
		c0.3-0.2,0.5-0.5,0.5-0.9l0.1-7.7l7.7-0.1c0.3,0,0.7-0.2,0.9-0.5l3.9-6.6l6.7,3.8c0.3,0.2,0.7,0.2,1,0l6.7-3.8l3.9,6.6
		c0.2,0.3,0.5,0.5,0.8,0.5l7.7,0.1l0.1,7.7c0,0.3,0.2,0.7,0.5,0.9l6.6,3.9l-3.8,6.7c-0.2,0.3-0.2,0.7,0,1l3.8,6.7L52.3,41.4z
		 M43,21.5c0.4,0.4,0.4,1,0,1.4c-4.9,4.9-9.2,10.2-13,16c-0.2,0.3-0.4,0.4-0.8,0.5h-0.1c-0.3,0-0.5-0.1-0.7-0.3L21,31
		c-0.4-0.4-0.4-1,0.1-1.4c0.4-0.4,1-0.4,1.4,0.1l0,0l6.5,7.1c3.7-5.4,7.9-10.5,12.5-15.2C41.9,21.1,42.5,21.1,43,21.5
		C43,21.5,43,21.5,43,21.5z"/>
</g>
</svg>
