<?xml version="1.0" encoding="utf-8"?>
<!-- Generator: Adobe Illustrator 22.1.0, SVG Export Plug-In . SVG Version: 6.00 Build 0)  -->
<svg version="1.1" id="Layer_1" xmlns="http://www.w3.org/2000/svg" xmlns:xlink="http://www.w3.org/1999/xlink" x="0px" y="0px"
	 viewBox="0 0 32 23" style="enable-background:new 0 0 32 23;" xml:space="preserve">
<style type="text/css">
	.st0{fill:#ECBBB6;}
</style>
<title>envelope, mail, email, new mail, mailing</title>
<path class="st0" d="M13.8,12.5c1.3,1,3.1,1,4.4,0l12.6-10C31,2.3,31.2,2,31.2,1.8c0-0.3-0.1-0.6-0.3-0.8c-0.6-0.6-1.5-1-2.4-1h-25
	C2.6,0,1.8,0.3,1.2,0.9C0.9,1.1,0.8,1.4,0.8,1.7C0.8,2,1,2.3,1.2,2.4L13.8,12.5z"/>
<path class="st0" d="M31.7,20.9c0.2-0.5,0.3-0.9,0.3-1.4V4.7l-9.9,7.9L31.7,20.9z"/>
<path class="st0" d="M9.9,12.6L0,4.7v14.8c0,0.5,0.1,1,0.3,1.4L9.9,12.6z"/>
<path class="st0" d="M29.9,22.7l-9.8-8.5l-0.4,0.3c-2.2,1.8-5.3,1.8-7.5,0l-0.4-0.3l-9.8,8.5C2.5,22.9,3,23,3.5,23h25
	C29,23,29.5,22.9,29.9,22.7z"/>
</svg>
