<?xml version="1.0" encoding="utf-8"?>
<!-- Generator: Adobe Illustrator 22.1.0, SVG Export Plug-In . SVG Version: 6.00 Build 0)  -->
<svg version="1.1" id="Layer_1" xmlns="http://www.w3.org/2000/svg" xmlns:xlink="http://www.w3.org/1999/xlink" x="0px" y="0px"
	 viewBox="0 0 251.7 447" style="enable-background:new 0 0 251.7 447;" xml:space="preserve">
<style type="text/css">
	.st0{fill:#ECBBB6;}
</style>
<g>
	<path class="st0" d="M212.5,0H39.2C17.6,0,0,17.6,0,39.2v368.6C0,429.4,17.6,447,39.2,447h173.3c21.6,0,39.2-17.6,39.2-39.2V39.2
		C251.8,17.6,234.1,0,212.5,0z M74.7,28.1h102.4v6.5H74.7V28.1z M125.9,432.6c-12.3,0-22.3-10-22.3-22.3s10-22.3,22.3-22.3
		c12.3,0,22.3,10,22.3,22.3S138.2,432.6,125.9,432.6z M238.2,373.6H13.5v-311h224.7V373.6z"/>
</g>
</svg>
