<?xml version="1.0" encoding="utf-8"?>
<!-- Generator: Adobe Illustrator 22.1.0, SVG Export Plug-In . SVG Version: 6.00 Build 0)  -->
<svg version="1.1" id="Layer_1" xmlns="http://www.w3.org/2000/svg" xmlns:xlink="http://www.w3.org/1999/xlink" x="0px" y="0px"
	 viewBox="0 0 219 231" style="enable-background:new 0 0 219 231;" xml:space="preserve">
<style type="text/css">
	.st0{fill:#E7D645;}
	.st1{fill:#D8C74A;}
	.st2{fill:#E0CB51;}
	.st3{fill:#E5CD55;}
	.st4{fill:#E5CF6E;}
	.st5{fill:#CCB750;}
</style>
<image style="display:none;overflow:visible;" width="219" height="231" xlink:href="anim-icon-1.png"  transform="matrix(1 0 0 1 -0.5 -0.5)">
</image>
<polygon class="st0" points="128.3,44 56.7,143.4 178.9,158.3 "/>
<polygon class="st1" points="18,48.8 56.7,143.4 128.3,44 "/>
<polygon class="st2" points="18,48.8 119.7,0 128.3,44 "/>
<polygon class="st3" points="119.7,0 216.9,70.7 128.3,44 "/>
<polygon class="st4" points="128.3,44 178.9,158.3 216.9,70.7 "/>
<polygon class="st3" points="216.9,70.7 198.4,186.2 178.9,158.3 "/>
<polygon class="st3" points="56.7,143.4 95.2,229.6 178.9,158.3 "/>
<polygon class="st1" points="56.7,143.4 1.6,161.3 95.2,229.6 "/>
<polygon class="st5" points="18,48.8 1.6,161.3 56.7,143.4 "/>
<polygon class="st2" points="178.9,158.3 198.4,186.2 95.2,229.6 "/>
</svg>
