<?xml version="1.0" encoding="utf-8"?>
<!-- Generator: Adobe Illustrator 22.1.0, SVG Export Plug-In . SVG Version: 6.00 Build 0)  -->
<svg version="1.1" id="Capa_1" xmlns="http://www.w3.org/2000/svg" xmlns:xlink="http://www.w3.org/1999/xlink" x="0px" y="0px"
	 viewBox="0 0 439.6 439.6" style="enable-background:new 0 0 439.6 439.6;" xml:space="preserve">
<g>
	<path d="M406.9,78.1C380.4,47.6,342,33.3,301.8,39c-29.5,4.2-57,17.8-82,40.7c-24.9-22.7-52.4-36.5-82-40.7
		c-40.2-5.7-78.6,8.6-105.1,39.2c-31.7,36.5-40.8,89.1-25,144.4c15.8,55.3,51.2,100.5,99.9,128c-0.2,1.9-0.3,3.8-0.5,5.6
		c-0.9,11.3,2.7,22.2,10,30.8s17.6,13.8,28.9,14.7c1.1,0.1,2.2,0.1,3.3,0.1c16.8,0,31.6-10.1,38.4-24.7c10.5,1.4,21.3,2.1,32.2,2.1
		c10.8,0,21.6-0.7,32.2-2.1c6.8,14.6,21.6,24.7,38.4,24.7c1.1,0,2.2,0,3.3-0.1c23.3-1.8,40.7-22.2,38.9-45.5
		c-0.1-1.9-0.3-3.7-0.5-5.6c48.7-27.5,84-72.7,99.9-128C447.8,167.2,438.7,114.6,406.9,78.1z M89,199.3c-7.8-27.2-5.1-51.1,7.5-65.6
		c7.6-8.8,17.8-12.6,29.5-10.9c14.1,2,28.3,10.4,42,24.4c-3.1,5.5-6.1,11.2-9,17c-14,28.1-25.9,60.6-34.9,94.3
		C107.7,242.8,95.6,222.6,89,199.3z M149.2,381.8c-0.6,0-1.2,0-1.8-0.1c-5.9-0.5-11.3-3.2-15.2-7.7c-3.9-4.5-5.7-10.3-5.3-16.2
		c2-25.7,6.3-52.5,12.5-78.8c0-0.1,0.1-0.2,0.1-0.4c8.9-37.7,21.8-74.4,37.3-105.5c1.6-3.2,3.3-6.4,4.9-9.5
		c8,10.8,15.8,23.7,23.1,38.3c1.3,2.7,2.7,5.4,4,8.2c-19.8,45.6-33.4,100.4-37.4,151.1C170.5,372.8,160.8,381.8,149.2,381.8z
		 M237.2,293.7c-5.7,0.6-11.5,0.9-17.4,0.9c-5.9,0-11.7-0.3-17.4-0.9c4.7-19.7,10.5-39.1,17.4-57.4
		C226.6,254.5,232.5,273.9,237.2,293.7z M191.8,357.5c1.3-14.5,3.5-29.4,6.3-44.2c7.1,0.9,14.3,1.3,21.6,1.3
		c7.3,0,14.5-0.4,21.6-1.3c2.9,14.8,5,29.6,6.3,44.2C229.4,359.8,210.2,359.8,191.8,357.5z M292.1,381.7c-0.6,0-1.2,0.1-1.8,0.1
		c-11.6,0-21.3-9-22.2-20.6c-1.6-19.9-4.6-40.5-9-60.9c0,0,0,0,0,0c0-0.1,0-0.2-0.1-0.3c-8.1-38.2-20.8-75.8-36.3-107.1
		c-10.5-21.1-22.1-38.8-34.4-52.9c-0.4-0.6-0.9-1.2-1.5-1.7c-18.3-20.4-38.1-32.6-58.2-35.4c-18.4-2.6-35.2,3.7-47.4,17.6
		c-17.1,19.6-21.3,50.3-11.6,84.2c8.8,30.6,25.6,56.6,48.9,75.6c-3.6,16.1-6.6,32.3-8.7,48.4C69.7,303.6,40.4,264.4,26.8,217
		c-13.9-48.7-6.3-94.5,20.9-125.8c22.1-25.4,53.9-37.2,87.3-32.5c28,3.9,54.1,18.1,77.7,41.8c0,0,0,0,0.1,0.1c0,0,0.1,0.1,0.1,0.1
		c18.4,18.5,35.1,42.7,49.9,72.4c15.5,31.1,28.3,67.8,37.3,105.6c0,0.1,0,0.2,0.1,0.3c6.2,26.3,10.5,53.1,12.6,78.8
		C313.6,370,304.4,380.8,292.1,381.7z M315.5,258.5c-9-33.7-20.9-66.2-34.9-94.3c-2.9-5.8-5.9-11.5-9-16.9
		c13.8-14.1,28.2-22.6,41.9-24.5c11.7-1.6,21.9,2.1,29.5,10.9c12.6,14.4,15.3,38.3,7.5,65.6C343.9,222.6,331.9,242.8,315.5,258.5z
		 M412.7,217c-13.6,47.4-42.8,86.6-83.1,111.7c-2.2-16-5.1-32.3-8.7-48.4c23.3-19,40.2-45.1,48.9-75.6c9.7-33.9,5.5-64.6-11.6-84.2
		c-12.1-13.9-28.9-20.2-47.4-17.6c-17.1,2.4-33.8,11.4-49.8,26.7c-8.6-13.3-17.6-25.2-27.2-35.8c21.8-19.8,45.5-31.6,70.7-35.1
		c33.4-4.7,65.2,7.1,87.3,32.5C419,122.5,426.6,168.4,412.7,217z"/>
	<path d="M157.8,80.8c-2.5-4.9-8.5-6.9-13.4-4.4c-4.9,2.5-6.9,8.5-4.4,13.4l2,4c1.8,3.5,5.3,5.5,8.9,5.5c1.5,0,3.1-0.3,4.5-1.1
		c4.9-2.5,6.9-8.5,4.4-13.4L157.8,80.8z"/>
	<path d="M185,98.3l-3.4,3c-4.1,3.7-4.5,10-0.9,14.1c2,2.2,4.7,3.4,7.5,3.4c2.3,0,4.7-0.8,6.6-2.5l3.4-3c4.1-3.7,4.5-10,0.9-14.1
		C195.4,95.1,189.1,94.7,185,98.3z"/>
	<path d="M329.7,69.6l-4.3-1.3c-5.3-1.6-10.9,1.4-12.5,6.7c-1.6,5.3,1.4,10.9,6.7,12.5l4.3,1.3c1,0.3,1.9,0.4,2.9,0.4
		c4.3,0,8.3-2.8,9.6-7.1C338,76.8,335,71.2,329.7,69.6z"/>
	<path d="M261,219.8c-5.5-0.3-10.2,3.9-10.6,9.4l-0.3,4.5c-0.3,5.5,3.9,10.2,9.4,10.6c0.2,0,0.4,0,0.6,0c5.3,0,9.7-4.1,10-9.4
		l0.3-4.5C270.8,224.9,266.6,220.2,261,219.8z"/>
	<path d="M175,222.5c1.5,0.8,3.2,1.2,4.8,1.2c3.5,0,7-1.9,8.8-5.2l2.2-3.9c2.7-4.8,0.9-10.9-4-13.6c-4.8-2.7-10.9-0.9-13.6,4
		L171,209C168.3,213.8,170.1,219.9,175,222.5z"/>
	<path d="M87.5,75.1l-4.3,1.1c-5.4,1.4-8.6,6.8-7.2,12.2c1.2,4.5,5.2,7.5,9.7,7.5c0.8,0,1.6-0.1,2.5-0.3l4.3-1.1
		c5.4-1.4,8.6-6.8,7.2-12.2C98.2,77,92.8,73.7,87.5,75.1z"/>
	<path d="M379,132l-0.7,4.4c-0.9,5.5,2.8,10.6,8.3,11.5c0.5,0.1,1.1,0.1,1.6,0.1c4.8,0,9.1-3.5,9.9-8.4l0.7-4.4
		c0.9-5.5-2.8-10.6-8.3-11.5C385,122.9,379.9,126.6,379,132z"/>
	<path d="M47.6,152.2c-5.5-0.8-10.5,3-11.3,8.5l-0.6,4.4c-0.8,5.5,3,10.5,8.5,11.3c0.5,0.1,0.9,0.1,1.4,0.1c4.9,0,9.2-3.6,9.9-8.6
		l0.6-4.4C56.9,158,53.1,153,47.6,152.2z"/>
	<path d="M289.4,288.4c-4.9-2.5-10.9-0.5-13.4,4.5l-2,4c-2.5,4.9-0.5,10.9,4.5,13.4c1.4,0.7,3,1.1,4.5,1.1c3.7,0,7.2-2,9-5.5l2-4
		C296.3,296.8,294.3,290.8,289.4,288.4z"/>
	<path d="M236.7,147.7l-3.6-2.7c-4.4-3.3-10.7-2.5-14,1.9c-3.3,4.4-2.5,10.7,1.9,14l3.6,2.7c1.8,1.4,3.9,2,6,2c3,0,6-1.4,8-4
		C242,157.3,241.1,151.1,236.7,147.7z"/>
	<path d="M270.4,82.1l-3.5,2.8c-4.3,3.5-5,9.7-1.6,14.1c2,2.5,4.9,3.7,7.8,3.7c2.2,0,4.4-0.7,6.2-2.2l3.5-2.8
		c4.3-3.5,5-9.7,1.6-14.1C281,79.4,274.7,78.7,270.4,82.1z"/>
	<path d="M175.9,263.6l0-4.5c0-5.5-4.5-10-10-10c0,0,0,0,0,0c-5.5,0-10,4.5-10,10l0,4.5c0,5.5,4.5,10,10,10c0,0,0,0,0,0
		C171.4,273.6,175.9,269.1,175.9,263.6z"/>
</g>
</svg>
