<?xml version="1.0" encoding="utf-8"?>
<!-- Generator: Adobe Illustrator 22.1.0, SVG Export Plug-In . SVG Version: 6.00 Build 0)  -->
<svg version="1.1" id="Layer_1" xmlns="http://www.w3.org/2000/svg" xmlns:xlink="http://www.w3.org/1999/xlink" x="0px" y="0px"
	 viewBox="0 0 470 470" style="enable-background:new 0 0 470 470;" xml:space="preserve">
<g>
	<path d="M447.5,254.5h-17.7V91.1c0-26.2-21.3-47.5-47.5-47.5h-9.6c-5.9-16.8-30-28-33.1-29.4c-2-0.9-4.2-0.9-6.1,0
		c-3.1,1.4-27.2,12.6-33.1,29.4h-15.8C278.1,19.7,242.5,3,238.1,1.1c-1.9-0.9-4.2-0.9-6.1,0c-4.4,2-40.1,18.6-46.5,42.5h-15.8
		c-5.9-16.8-30-28-33.1-29.4c-1.9-0.9-4.2-0.9-6.1,0c-3.1,1.4-27.2,12.6-33.1,29.4h-9.6c-26.2,0-47.5,21.3-47.5,47.5v163.4H22.5
		C10.1,254.5,0,264.6,0,277s10.1,22.5,22.5,22.5h136c3.5,17.1,18.6,30,36.7,30h13.2v36.6c-16.7,8.7-28,24.9-30.5,43.5h-25.8
		c-13.9,0-29.3,10-35,22.7l-9.9,22.3H92.3c-4.1,0-7.5,3.4-7.5,7.5s3.4,7.5,7.5,7.5h20c0.1,0,245.5,0,245.5,0c0.1,0,20,0,20,0
		c4.1,0,7.5-3.4,7.5-7.5s-3.4-7.5-7.5-7.5h-15.1l-9.9-22.3c-5.7-12.7-21-22.7-35-22.7h-25.8c-2.4-18.6-13.7-34.8-30.5-43.5v-36.6
		h13.2c18.1,0,33.3-12.9,36.7-30h136c12.4,0,22.5-10.1,22.5-22.5S459.9,254.5,447.5,254.5z M336.6,29.3c6.8,3.5,14.7,8.9,19.1,14.3
		h-38.2C321.9,38.2,329.8,32.8,336.6,29.3z M235,16.2c9.7,4.9,27.6,15.8,33.6,27.4h-67.2C207.4,32,225.3,21.1,235,16.2z M133.4,29.3
		c6.8,3.5,14.7,8.9,19.1,14.3h-38.2C118.7,38.2,126.6,32.8,133.4,29.3z M87.7,58.6h294.7c17.9,0,32.5,14.6,32.5,32.5v23
		c-13.6,1.8-21.5,8.4-28.6,14.4c-7.6,6.4-13.5,11.4-26.4,11.4s-18.8-5-26.4-11.4c-8.3-7-17.7-14.9-36.1-14.9
		c-18.3,0-27.8,7.9-36.1,14.9c-7.6,6.4-13.5,11.4-26.4,11.4c-12.9,0-18.8-5-26.4-11.4c-8.3-7-17.7-14.9-36.1-14.9
		c-18.3,0-27.8,7.9-36.1,14.9c-4.4,3.7-8.6,7.3-14.1,9.3c-2.9,1.1-4.8,3.9-4.8,7v41.3c0,4.1-3.4,7.5-7.5,7.5c-4.1,0-7.5-3.4-7.5-7.5
		c0-13.7,0-39.4,0-41.2c0.1-3.1-1.8-6-4.8-7.1c-5.4-2.1-9.6-5.6-14.1-9.3c-7.1-6-15-12.6-28.5-14.4v-23
		C55.2,73.2,69.7,58.6,87.7,58.6L87.7,58.6z M55.2,129.3c8,1.6,13,5.7,18.9,10.7c3.9,3.3,8.1,6.9,13.6,9.7l0,36.5
		c0,12.4,10.1,22.5,22.5,22.5s22.5-10.1,22.5-22.5v-36.5c5.4-2.8,9.7-6.4,13.6-9.7c7.6-6.4,13.5-11.4,26.4-11.4
		c12.9,0,18.8,5,26.4,11.4c8.3,7,17.7,14.9,36.1,14.9S262.7,147,271,140c7.6-6.4,13.5-11.4,26.4-11.4c12.9,0,18.8,5,26.4,11.4
		c8.3,7,17.7,14.9,36.1,14.9s27.8-7.9,36.1-14.9c5.9-5,10.9-9.1,18.9-10.7v125.2H55.2L55.2,129.3L55.2,129.3z M251.1,377.8
		c13.6,5.6,23.1,17.6,25.6,31.8h-41.7c-4.1,0-7.5,3.4-7.5,7.5s3.4,7.5,7.5,7.5h82.7c8.1,0,18,6.5,21.3,13.8l7.2,16.2H123.8l7.2-16.2
		c3.3-7.4,13.2-13.8,21.3-13.8h52.8c4.1,0,7.5-3.4,7.5-7.5s-3.4-7.5-7.5-7.5h-11.8c2.5-14.1,12-26.2,25.6-31.8
		c2.8-1.2,4.6-3.9,4.6-6.9v-41.4h23v41.4C246.5,373.9,248.3,376.7,251.1,377.8z M274.7,314.5h-79.4c-9.8,0-18.1-6.3-21.2-15h121.8
		C292.8,308.2,284.5,314.5,274.7,314.5z M447.5,284.5h-425c-4.1,0-7.5-3.4-7.5-7.5s3.4-7.5,7.5-7.5h425c4.1,0,7.5,3.4,7.5,7.5
		S451.6,284.5,447.5,284.5z"/>
	<circle cx="338.2" cy="223.2" r="7.5"/>
	<circle cx="368.2" cy="193.2" r="7.5"/>
</g>
</svg>
