<?xml version="1.0" encoding="utf-8"?>
<!-- Generator: Adobe Illustrator 22.1.0, SVG Export Plug-In . SVG Version: 6.00 Build 0)  -->
<svg version="1.1" id="Layer_1" xmlns="http://www.w3.org/2000/svg" xmlns:xlink="http://www.w3.org/1999/xlink" x="0px" y="0px"
	 viewBox="0 0 470 470" style="enable-background:new 0 0 470 470;" xml:space="preserve">
<g>
	<path d="M377.8,469.5c-91.6,0-186.2-42.3-259.7-115.7C40.5,276.2-1.8,179.3,0.6,85.9v-3.5l2.3-2.9c6.5-8.2,12.9-15.3,19.4-22.3
		C47,32.4,75.8,13.6,108.1,1.3c2.9-1.2,6.5-1.8,10-1.8c11.2,0,30,5.9,33.5,17C163.3,48.3,177.4,90,188,129.3c1.8,7.6,0,30-11.2,36.4
		l-37.6,23.5c-2.4,1.8-3.5,4.1-4.1,6.5c-1.2,6.5,1.2,14.7,5.9,21.7c14.7,20.6,31.7,40.5,51.1,59.9c19.4,18.8,39.4,35.8,59.3,50.5
		c10,7.6,24.1,8.2,27.6,2.4l24.1-37.6c5.9-9.4,24.1-11.8,30.5-11.8c2.4,0,4.1,0,5.9,0.6c48.2,10.6,77,20,114,37
		c11.2,5.3,19.4,30,14.1,43.5c-12.3,32.3-31.1,61.1-55.8,85.8c-7,7-14.7,13.5-22.3,19.4l-1.8,2.3H377.8L377.8,469.5z M21.7,90
		c-1.2,87,38.8,176.8,109.9,247.3l1.8,1.8c69.3,69.3,158.6,109.3,244.4,109.3h2.9c6.5-5.3,12.3-10.6,17.6-15.9
		c22.3-22.3,39.4-48.8,51.1-78.7c1.2-3.5-1.8-14.7-4.7-17c-34.1-15.3-61.7-24.1-108.7-34.7c-6.5,0-12.9,1.8-14.7,2.9l-22.9,36.4
		c-10,16.5-38.2,18.2-58.2,3.5c-21.1-15.3-41.7-32.9-61.7-52.9s-37.6-41.1-52.9-62.3c-8.8-11.8-12.3-25.9-10-38.2
		c1.8-8.8,6.5-15.9,13.5-20.6l37.6-23.5c0.6-1.8,2.4-10.6,1.8-13.5c-10-38.8-24.7-79.9-35.8-111c-1.2-0.6-8.2-2.9-13.5-2.9
		c-1.8,0-2.3,0-2.3,0c-30,11.8-56.4,28.8-78.7,51.1C32.3,77.6,27,83.5,21.7,90L21.7,90z"/>
</g>
</svg>
