<?xml version="1.0" encoding="iso-8859-1"?>
<!-- Generator: Adobe Illustrator 19.0.0, SVG Export Plug-In . SVG Version: 6.00 Build 0)  -->
<svg version="1.1" id="Capa_1" xmlns="http://www.w3.org/2000/svg" xmlns:xlink="http://www.w3.org/1999/xlink" x="0px" y="0px"
	 viewBox="0 0 376.32 376.32" style="enable-background:new 0 0 376.32 376.32;" xml:space="preserve">
<g>
	<g>
		<path d="M355.328,163.529l-0.512-0.512l-5.632,0.512l-3.584-4.096h-0.512l-0.512,0.512l-1.024,5.632l-5.12,2.048l-0.512,0.512
			c0,0,0,0.512,0.512,0.512l4.608,2.56l0.512,5.632c0,0,0,0.512,0.512,0.512h0.512l4.096-3.584l5.632,1.024h0.512v-0.512l-2.56-5.12
			l2.56-4.608C355.328,164.041,355.328,164.041,355.328,163.529z"/>
	</g>
</g>
<g>
	<g>
		<path d="M328.192,298.185l-5.632,0.512l-3.584-4.096c0,0-0.512-0.512-0.512,0l-0.512,0.512l-1.536,5.632l-5.12,2.048l-0.512,0.512
			c0,0,0,0.512,0.512,0.512l4.608,2.56l0.512,5.632c0,0,0,0.512,0.512,0.512h0.512l4.096-3.584l5.632,1.024h0.512v-0.512l-2.56-5.12
			l2.56-4.608c1.024-0.512,1.024-1.024,1.024-1.024L328.192,298.185z"/>
	</g>
</g>
<g>
	<g>
		<path d="M327.68,229.577l-5.632,0.512l-3.584-4.096c0,0-0.512-0.512-0.512,0l-0.512,0.512l-1.024,5.632l-5.12,2.048l-0.512,0.512
			c0,0,0,0.512,0.512,0.512l4.608,2.56l0.512,5.632c0,0,0,0.512,0.512,0.512h0.512l4.096-3.584l5.632,1.024h0.512v-0.512l-2.56-5.12
			l2.56-4.608v-0.512C328.192,229.577,328.192,229.577,327.68,229.577z"/>
	</g>
</g>
<g>
	<g>
		<circle cx="326.656" cy="142.537" r="7.68"/>
	</g>
</g>
<g>
	<g>
		<circle cx="338.432" cy="203.465" r="7.68"/>
	</g>
</g>
<g>
	<g>
		<circle cx="345.6" cy="272.073" r="7.68"/>
	</g>
</g>
<g>
	<g>
		<circle cx="346.624" cy="331.465" r="7.68"/>
	</g>
</g>
<g>
	<g>
		<path d="M208.384,110.281h-13.312V95.945c16.896-15.872,24.064-31.744,20.992-47.104c-5.632-30.208-46.592-47.616-48.64-48.128
			c-2.048-1.024-4.608,0-6.144,2.048c-1.536,2.048-1.024,4.608,0.512,6.656c0,0,7.168,8.192,0,34.816
			c-7.168,25.088,10.24,43.52,22.528,51.2v14.848h-13.824c-13.312,0-24.064,10.752-24.064,24.064v217.6
			c0,13.312,10.752,24.064,24.064,24.064h37.376c10.752,0,19.456-7.168,22.528-16.384c0-0.512,0.512-0.512,0.512-1.024
			c0.512-2.048,1.024-4.096,1.024-6.144V133.833C231.936,121.033,221.696,110.281,208.384,110.281z M172.032,46.793
			c4.096-13.824,4.096-24.064,3.072-30.72c11.776,6.656,28.16,18.944,30.72,34.816c1.536,9.728-2.048,19.968-11.264,30.72v-10.24
			c0-3.072-2.048-5.12-5.12-5.12c-3.072,0-5.12,2.048-5.12,5.12v11.264C176.64,75.977,166.912,63.689,172.032,46.793z
			 M207.872,120.521c7.68,0,13.824,6.144,13.824,13.824v18.944l-46.592-32.768H207.872z M157.184,168.649l64.512,45.568v36.352
			l-64.512-45.568V168.649z M156.672,217.801l64.512,45.568v35.99l-64-45.206c0,0,0,0-0.512,0V217.801z M221.696,348.361
			l-64.512-45.568v-36.352l64.512,45.568V348.361z M208.384,365.769h-37.376c-7.68,0-13.824-6.144-13.824-13.824v-36.864
			l62.464,44.032C217.6,363.209,212.992,365.769,208.384,365.769z M222.208,201.929h-0.512l-64.512-45.568v-22.016
			c0-4.096,2.048-8.192,5.12-10.24l59.904,42.496V201.929z"/>
	</g>
</g>
<g>
	<g>
		<path d="M352.768,110.281h-13.312V95.945c16.896-15.872,24.064-31.744,20.992-47.104c-5.632-30.208-46.592-47.616-48.64-48.128
			c-2.048-1.024-4.608,0-6.144,2.048c-1.536,2.048-1.024,4.608,0.512,6.656c0,0,7.168,8.192,0,34.816
			c-7.168,25.088,10.24,43.52,22.528,51.2v14.848H314.88c-13.312,0-24.064,10.752-24.064,24.064v217.6
			c0,13.312,10.752,24.064,24.064,24.064h37.376c13.312,0,24.064-10.752,24.064-24.064V133.833
			C376.32,121.033,365.568,110.281,352.768,110.281z M328.192,71.369v11.264c-7.168-6.656-16.896-18.944-12.288-35.84
			C320,32.969,320,22.729,318.976,16.073c11.776,6.656,28.16,18.944,30.72,34.816c1.536,9.728-2.048,19.968-11.264,30.72v-10.24
			c0-3.072-2.048-5.12-5.12-5.12C330.24,66.249,328.192,68.297,328.192,71.369z M366.08,351.945c0,7.68-6.144,13.824-13.824,13.824
			H314.88c-7.68,0-13.824-6.144-13.824-13.824V133.833c0-7.68,6.144-13.824,13.824-13.824h37.376c7.68,0,13.824,6.144,13.824,13.824
			V351.945z"/>
	</g>
</g>
<g>
	<g>
		<path d="M61.44,110.281H48.128V95.945C65.024,80.073,72.192,64.201,69.12,48.841C63.488,18.633,22.528,1.225,20.48,0.713
			c-2.048-1.024-4.608,0-6.144,2.048c-1.024,1.536-1.024,4.096,1.024,6.144c0,0,7.168,8.192,0,34.816
			c-7.168,25.088,10.24,43.52,22.528,51.2v14.848H24.064C10.752,109.769,0,120.521,0,133.833v218.112
			c0,13.312,10.752,24.064,24.064,24.064H61.44c13.312,0,24.064-10.752,24.064-24.064V133.833
			C85.504,121.033,74.752,110.281,61.44,110.281z M37.376,71.369v11.264c-7.68-6.656-17.408-18.944-12.288-35.84
			c4.096-13.824,4.096-24.064,3.072-30.72c11.776,6.656,28.16,18.944,30.72,34.816c1.536,9.728-2.048,19.968-11.264,30.72v-10.24
			c0-3.072-2.048-5.12-5.12-5.12C39.424,66.249,37.376,68.297,37.376,71.369z M10.752,147.145l7.168,4.096
			c1.536,1.024,3.584,1.024,5.12,0l12.288-7.168l12.288,7.168c1.536,1.024,3.584,1.024,5.12,0l12.288-7.168l9.728,6.144v26.351
			l-7.168-3.823c-1.536-1.024-3.584-1.024-5.12,0l-12.288,7.168l-12.288-7.168c-1.536-1.024-3.584-1.024-5.12,0l-12.288,7.168
			l-9.728-6.144V147.145z M10.24,185.545l7.168,4.096c1.536,1.024,3.584,1.024,5.12,0l12.288-7.168l12.288,7.168
			c1.536,1.024,3.584,1.024,5.12,0l12.288-7.168l9.728,6.144v26.551l-6.144-3.511c-1.536-1.024-3.584-1.024-5.12,0l-12.8,7.168
			l-12.288-7.168c-1.536-1.024-3.584-1.024-5.12,0l-12.8,7.168l-9.728-6.144V185.545z M10.24,263.369l7.168,4.096
			c1.536,1.024,3.584,1.024,5.12,0l12.288-7.168l12.288,7.168c1.536,1.024,3.584,1.024,5.12,0l12.288-7.168l9.728,6.144v26.551
			l-6.144-3.511c-1.536-1.024-3.584-1.024-5.12,0l-12.288,7.168L38.4,289.481c-1.536-1.024-3.584-1.024-5.12,0l-12.288,7.168
			l-10.752-6.144V263.369z M61.44,365.769H24.064c-7.68,0-13.824-6.144-13.824-13.824v-10.24l7.168,4.096
			c1.536,1.024,3.584,1.024,5.12,0l12.288-7.168l12.288,7.168c1.536,1.024,3.584,1.024,5.12,0l12.288-7.168l9.728,6.144v7.168h1.024
			C75.264,359.625,69.12,365.769,61.44,365.769z M75.264,332.489l-7.168-4.096c-1.536-1.024-3.584-1.024-5.12,0l-12.288,7.168
			L38.4,328.393c-1.536-1.024-3.584-1.024-5.12,0l-12.288,7.168l-9.728-6.144v-27.136l7.168,4.096c1.536,1.024,3.584,1.024,5.12,0
			l12.288-7.168l12.288,7.168c1.536,1.024,3.584,1.024,5.12,0l12.288-7.168l9.728,6.144V332.489z M75.264,254.665l-7.168-4.096
			c-1.536-1.024-3.584-1.024-5.12,0l-12.288,7.168L38.4,250.569c-1.536-1.024-3.584-1.024-5.12,0l-12.288,7.168l-9.728-6.144
			v-27.136l7.168,4.096c1.536,1.024,3.584,1.024,5.12,0l12.288-7.168l12.288,7.168c1.536,1.024,3.584,1.024,5.12,0l12.288-7.168
			l9.728,6.144V254.665z M76.288,138.441h-1.024l-7.168-4.096c-1.536-1.024-3.584-1.024-5.12,0l-12.288,7.168L38.4,134.345
			c-1.536-1.024-3.584-1.024-5.12,0l-12.288,7.168l-9.728-6.144v-1.536c0-7.68,6.144-13.824,13.824-13.824h37.376
			c7.68,0,13.824,6.144,13.824,13.824V138.441z"/>
	</g>
</g>
<g>
</g>
<g>
</g>
<g>
</g>
<g>
</g>
<g>
</g>
<g>
</g>
<g>
</g>
<g>
</g>
<g>
</g>
<g>
</g>
<g>
</g>
<g>
</g>
<g>
</g>
<g>
</g>
<g>
</g>
</svg>
