<?xml version="1.0" encoding="utf-8"?>
<!-- Generator: Adobe Illustrator 22.1.0, SVG Export Plug-In . SVG Version: 6.00 Build 0)  -->
<svg version="1.1" id="Capa_1" xmlns="http://www.w3.org/2000/svg" xmlns:xlink="http://www.w3.org/1999/xlink" x="0px" y="0px"
	 viewBox="0 0 376.3 376.3" style="enable-background:new 0 0 376.3 376.3;" xml:space="preserve">
<g>
	<g>
		<path d="M355.3,163.5l-0.5-0.5l-5.6,0.5l-3.6-4.1h-0.5l-0.5,0.5l-1,5.6l-5.1,2l-0.5,0.5c0,0,0,0.5,0.5,0.5l4.6,2.6l0.5,5.6
			c0,0,0,0.5,0.5,0.5h0.5l4.1-3.6l5.6,1h0.5v-0.5l-2.6-5.1l2.6-4.6C355.3,164,355.3,164,355.3,163.5z"/>
	</g>
</g>
<g>
	<g>
		<path d="M328.2,298.2l-5.6,0.5l-3.6-4.1c0,0-0.5-0.5-0.5,0l-0.5,0.5l-1.5,5.6l-5.1,2l-0.5,0.5c0,0,0,0.5,0.5,0.5l4.6,2.6l0.5,5.6
			c0,0,0,0.5,0.5,0.5h0.5l4.1-3.6l5.6,1h0.5v-0.5l-2.6-5.1l2.6-4.6c1-0.5,1-1,1-1L328.2,298.2z"/>
	</g>
</g>
<g>
	<g>
		<path d="M327.7,229.6l-5.6,0.5l-3.6-4.1c0,0-0.5-0.5-0.5,0l-0.5,0.5l-1,5.6l-5.1,2l-0.5,0.5c0,0,0,0.5,0.5,0.5l4.6,2.6l0.5,5.6
			c0,0,0,0.5,0.5,0.5h0.5l4.1-3.6l5.6,1h0.5v-0.5l-2.6-5.1l2.6-4.6v-0.5C328.2,229.6,328.2,229.6,327.7,229.6z"/>
	</g>
</g>
<g>
	<g>
		<circle cx="326.7" cy="142.5" r="7.7"/>
	</g>
</g>
<g>
	<g>
		<circle cx="338.4" cy="203.5" r="7.7"/>
	</g>
</g>
<g>
	<g>
		<circle cx="345.6" cy="272.1" r="7.7"/>
	</g>
</g>
<g>
	<g>
		<circle cx="346.6" cy="331.5" r="7.7"/>
	</g>
</g>
<g>
	<g>
		<path d="M208.4,110.3h-13.3V95.9c16.9-15.9,24.1-31.7,21-47.1c-5.6-30.2-46.6-47.6-48.6-48.1c-2-1-4.6,0-6.1,2s-1,4.6,0.5,6.7
			c0,0,7.2,8.2,0,34.8c-7.2,25.1,10.2,43.5,22.5,51.2v14.8h-13.8c-13.3,0-24.1,10.8-24.1,24.1v217.6c0,13.3,10.8,24.1,24.1,24.1
			h37.4c10.8,0,19.5-7.2,22.5-16.4c0-0.5,0.5-0.5,0.5-1c0.5-2,1-4.1,1-6.1V133.8C231.9,121,221.7,110.3,208.4,110.3z M172,46.8
			c4.1-13.8,4.1-24.1,3.1-30.7c11.8,6.7,28.2,18.9,30.7,34.8c1.5,9.7-2,20-11.3,30.7V71.4c0-3.1-2-5.1-5.1-5.1c-3.1,0-5.1,2-5.1,5.1
			v11.3C176.6,76,166.9,63.7,172,46.8z M207.9,120.5c7.7,0,13.8,6.1,13.8,13.8v18.9l-46.6-32.8C175.1,120.5,207.9,120.5,207.9,120.5
			z M157.2,168.6l64.5,45.6v36.4L157.2,205L157.2,168.6L157.2,168.6z M156.7,217.8l64.5,45.6v36l-64-45.2c0,0,0,0-0.5,0V217.8z
			 M221.7,348.4l-64.5-45.6v-36.4l64.5,45.6L221.7,348.4L221.7,348.4z M208.4,365.8H171c-7.7,0-13.8-6.1-13.8-13.8v-36.9l62.5,44
			C217.6,363.2,213,365.8,208.4,365.8z M222.2,201.9h-0.5l-64.5-45.6v-22c0-4.1,2-8.2,5.1-10.2l59.9,42.5L222.2,201.9L222.2,201.9z"
			/>
	</g>
</g>
<g>
	<g>
		<path d="M352.8,110.3h-13.3V95.9c16.9-15.9,24.1-31.7,21-47.1c-5.6-30.2-46.6-47.6-48.6-48.1c-2-1-4.6,0-6.1,2s-1,4.6,0.5,6.7
			c0,0,7.2,8.2,0,34.8c-7.2,25.1,10.2,43.5,22.5,51.2v14.8h-13.8c-13.3,0-24.1,10.8-24.1,24.1v217.6c0,13.3,10.8,24.1,24.1,24.1
			h37.4c13.3,0,24.1-10.8,24.1-24.1V133.8C376.3,121,365.6,110.3,352.8,110.3z M328.2,71.4v11.3c-7.2-6.7-16.9-18.9-12.3-35.8
			C320,33,320,22.7,319,16.1c11.8,6.7,28.2,18.9,30.7,34.8c1.5,9.7-2,20-11.3,30.7V71.4c0-3.1-2-5.1-5.1-5.1
			C330.2,66.2,328.2,68.3,328.2,71.4z M366.1,351.9c0,7.7-6.1,13.8-13.8,13.8h-37.4c-7.7,0-13.8-6.1-13.8-13.8V133.8
			c0-7.7,6.1-13.8,13.8-13.8h37.4c7.7,0,13.8,6.1,13.8,13.8L366.1,351.9L366.1,351.9z"/>
	</g>
</g>
<g>
	<g>
		<path d="M61.4,110.3H48.1V95.9c16.9-15.9,24.1-31.7,21-47.1C63.5,18.6,22.5,1.2,20.5,0.7c-2-1-4.6,0-6.1,2c-1,1.5-1,4.1,1,6.1
			c0,0,7.2,8.2,0,34.8C8.2,68.8,25.6,87.2,37.9,94.9v14.8H24.1C10.8,109.8,0,120.5,0,133.8v218.1C0,365.3,10.8,376,24.1,376h37.4
			c13.3,0,24.1-10.8,24.1-24.1V133.8C85.5,121,74.8,110.3,61.4,110.3z M37.4,71.4v11.3C29.7,76,20,63.7,25.1,46.8
			c4.1-13.8,4.1-24.1,3.1-30.7C39.9,22.7,56.3,35,58.9,50.9c1.5,9.7-2,20-11.3,30.7V71.4c0-3.1-2-5.1-5.1-5.1
			C39.4,66.2,37.4,68.3,37.4,71.4z M10.8,147.1l7.2,4.1c1.5,1,3.6,1,5.1,0l12.3-7.2l12.3,7.2c1.5,1,3.6,1,5.1,0l12.3-7.2l9.7,6.1
			v26.4l-7.2-3.8c-1.5-1-3.6-1-5.1,0l-12.3,7.2l-12.3-7.2c-1.5-1-3.6-1-5.1,0l-12.3,7.2l-9.7-6.1C10.8,173.8,10.8,147.1,10.8,147.1z
			 M10.2,185.5l7.2,4.1c1.5,1,3.6,1,5.1,0l12.3-7.2l12.3,7.2c1.5,1,3.6,1,5.1,0l12.3-7.2l9.7,6.1v26.6l-6.1-3.5c-1.5-1-3.6-1-5.1,0
			l-12.8,7.2l-12.3-7.2c-1.5-1-3.6-1-5.1,0L20,218.8l-9.7-6.1C10.2,212.7,10.2,185.5,10.2,185.5z M10.2,263.4l7.2,4.1
			c1.5,1,3.6,1,5.1,0l12.3-7.2l12.3,7.2c1.5,1,3.6,1,5.1,0l12.3-7.2l9.7,6.1V293l-6.1-3.5c-1.5-1-3.6-1-5.1,0l-12.3,7.2l-12.3-7.2
			c-1.5-1-3.6-1-5.1,0L21,296.6l-10.8-6.1C10.2,290.5,10.2,263.4,10.2,263.4z M61.4,365.8H24.1c-7.7,0-13.8-6.1-13.8-13.8v-10.2
			l7.2,4.1c1.5,1,3.6,1,5.1,0l12.3-7.2l12.3,7.2c1.5,1,3.6,1,5.1,0l12.3-7.2l9.7,6.1v7.2h1C75.3,359.6,69.1,365.8,61.4,365.8z
			 M75.3,332.5l-7.2-4.1c-1.5-1-3.6-1-5.1,0l-12.3,7.2l-12.3-7.2c-1.5-1-3.6-1-5.1,0L21,335.6l-9.7-6.1v-27.1l7.2,4.1
			c1.5,1,3.6,1,5.1,0l12.3-7.2l12.3,7.2c1.5,1,3.6,1,5.1,0l12.3-7.2l9.7,6.1V332.5z M75.3,254.7l-7.2-4.1c-1.5-1-3.6-1-5.1,0
			l-12.3,7.2l-12.3-7.2c-1.5-1-3.6-1-5.1,0L21,257.7l-9.7-6.1v-27.1l7.2,4.1c1.5,1,3.6,1,5.1,0l12.3-7.2l12.3,7.2c1.5,1,3.6,1,5.1,0
			l12.3-7.2l9.7,6.1V254.7z M76.3,138.4h-1l-7.2-4.1c-1.5-1-3.6-1-5.1,0l-12.3,7.2l-12.3-7.2c-1.5-1-3.6-1-5.1,0L21,141.5l-9.7-6.1
			v-1.5c0-7.7,6.1-13.8,13.8-13.8h37.4c7.7,0,13.8,6.1,13.8,13.8V138.4z"/>
	</g>
</g>
</svg>
