<?xml version="1.0" encoding="utf-8"?>
<!-- Generator: Adobe Illustrator 22.1.0, SVG Export Plug-In . SVG Version: 6.00 Build 0)  -->
<svg version="1.1" id="Layer_1" xmlns="http://www.w3.org/2000/svg" xmlns:xlink="http://www.w3.org/1999/xlink" x="0px" y="0px"
	 viewBox="0 0 511 511" style="enable-background:new 0 0 511 511;" xml:space="preserve">
<path d="M504.9,65.8c-0.2-0.2-0.4-0.4-0.6-0.6c-3.2-2.7-7.4-4.4-12-4.4H249.9c-4.1,0-7.5,3.4-7.5,7.5s3.3,7.5,7.5,7.5h229.8
	l-136.1,94.8c-3.3,2.3-7.6,2.3-10.9,0L196.5,75.9H215c4.1,0,7.5-3.4,7.5-7.5c0-4.1-3.4-7.5-7.5-7.5h-31.1c-4.6,0-8.7,1.6-12,4.4
	c-0.2,0.2-0.4,0.4-0.6,0.6c-3.7,3.4-6.1,8.3-6.1,13.8v187.3c0,5.5,2.4,10.4,6.2,13.8c0.2,0.2,0.3,0.3,0.5,0.4
	c3.3,2.8,7.5,4.4,12,4.4h308.4c4.6,0,8.8-1.7,12-4.4c0.2-0.1,0.3-0.3,0.5-0.5c3.8-3.4,6.2-8.3,6.2-13.8V79.6
	C511,74.1,508.7,69.2,504.9,65.8z M352.1,183l0.9-0.6l54.7,38.1c3.4,2.4,8,1.5,10.4-1.9c2.4-3.4,1.5-8.1-1.9-10.4l-50.2-35l130-90.5
	v181.1l-51.1-35.6c-3.4-2.4-8.1-1.5-10.4,1.9c-2.4,3.4-1.5,8.1,1.9,10.4l43.3,30.2H196.5l126.7-88.3l0.9,0.6
	C332.5,188.8,343.7,188.8,352.1,183z M180.2,82.7l130,90.5l-130,90.5V82.7z"/>
<path d="M216.4,448c17.7,3.6,35.8,3.7,53.6,0.3c4.1-0.8,6.7-4.7,5.9-8.8c-0.8-4.1-4.7-6.7-8.8-5.9c-15.9,3.1-32,3-47.8-0.3
	c-101.9-20.7-181.2-100-202-202c-8.3-40.6,4.3-82.4,33.6-111.8c10.1-10.1,26.6-10.1,36.7,0l42.1,42.1c7.9,7.9,7,21-1.9,27.7
	l-26.2,19.8c-15.6,11.8-20.3,33-10.5,50c24,41.6,58.7,76.4,100.4,100.4c17,9.8,38.2,5.1,50-10.5l19.8-26.2
	c6.7-8.9,19.8-9.8,27.7-1.9l42.1,42.1c10.1,10.1,10.1,26.6,0,36.7c-9,9-19.2,16.5-30.5,22.3c-3.7,1.9-5.1,6.4-3.2,10.1
	c1.9,3.7,6.4,5.1,10.1,3.2c12.6-6.5,24.1-15,34.2-25c16-16,16-41.9,0-57.9l-42.1-42.1c-14.3-14.3-38-12.7-50.2,3.5L229.7,340
	c-7,9.3-20.2,12.5-30.5,6.6c-39.4-22.7-72.2-55.5-94.9-94.9c-6-10.4-2.7-23.5,6.6-30.5l26.2-19.8c16.2-12.2,17.8-35.9,3.5-50.2
	l-42.1-42.1c-16-16-41.9-16-57.9,0c-32.9,32.9-47,79.7-37.7,125.3C24.7,342.2,108.6,426.1,216.4,448z"/>
</svg>
