<?xml version="1.0" encoding="utf-8"?>
<!-- Generator: Adobe Illustrator 22.1.0, SVG Export Plug-In . SVG Version: 6.00 Build 0)  -->
<svg version="1.1" id="Capa_1" xmlns="http://www.w3.org/2000/svg" xmlns:xlink="http://www.w3.org/1999/xlink" x="0px" y="0px"
	 viewBox="0 0 480 480" style="enable-background:new 0 0 480 480;" xml:space="preserve">
<g>
	<g>
		<rect x="112" y="208" width="16" height="16"/>
	</g>
</g>
<g>
	<g>
		<rect x="152" y="192" width="16" height="16"/>
	</g>
</g>
<g>
	<g>
		<rect x="200" y="208" width="16" height="16"/>
	</g>
</g>
<g>
	<g>
		<rect x="248" y="192" width="16" height="16"/>
	</g>
</g>
<g>
	<g>
		<rect x="304" y="192" width="16" height="16"/>
	</g>
</g>
<g>
	<g>
		<rect x="344" y="208" width="16" height="16"/>
	</g>
</g>
<g>
	<g>
		<rect x="248" y="48" width="16" height="16"/>
	</g>
</g>
<g>
	<g>
		<rect x="184" y="112" width="16" height="16"/>
	</g>
</g>
<g>
	<g>
		<rect x="224" y="128" width="16" height="16"/>
	</g>
</g>
<g>
	<g>
		<rect x="296" y="112" width="16" height="16"/>
	</g>
</g>
<g>
	<g>
		<path d="M403.5,240.2c17.8-19.6,16.4-49.9-3.2-67.7C391.5,164.4,380,160,368,160h-20.3c17.7-19.7,16.1-50-3.5-67.7
			c-8.8-8-20.3-12.3-32.2-12.3h-0.6c-4.1-32-31.2-55.9-63.4-56h-11c-6,0.2-11.3-3.8-12.8-9.6c-0.3-1.6-0.3-3.2,0-4.8
			c0.4-2.4-0.3-4.8-1.8-6.7C220.8,1.1,218.5,0,216,0c-20.5-0.3-38.9,12.7-45.5,32.2c-5,14.9-2.6,31.3,6.6,44c1,1.3,2,2.6,3.1,3.8
			H168c-26.5,0-48,21.4-48,47.8c0,11.9,4.4,23.3,12.3,32.2H112c-26.5-0.1-48,21.4-48,47.8c0,12,4.4,23.5,12.5,32.4
			C51.4,242,32,262.9,32,288c0,15.8,7.8,30.5,20.9,39.3l51.6,147.3c1.1,3.2,4.2,5.4,7.6,5.4h256c3.4,0,6.4-2.1,7.6-5.4l51.6-147.3
			c13.1-8.8,20.9-23.5,20.9-39.3C448,262.9,428.6,242,403.5,240.2z M185.8,37.2c3.5-10.2,12.1-17.9,22.7-20.2c0,0.2,0.1,0.3,0.1,0.5
			c2.9,13.3,14.9,22.8,28.5,22.5h11c23.4,0,43.4,16.9,47.3,40H216c-10.2,0-19.9-4.9-25.9-13.2C184,58.2,182.3,47.2,185.8,37.2z
			 M168,96h144c17.7,0,32,14.3,32,32s-14.3,32-32,32H168c-17.7,0-32-14.3-32-32S150.3,96,168,96z M112,176h256c17.7,0,32,14.3,32,32
			s-14.3,32-32,32H112c-17.7,0-32-14.3-32-32S94.3,176,112,176z M117.7,464L65.1,313.7c4.5-4.4,10.5-7.1,16.8-7.6
			c7.7-0.5,15.3,2.3,20.8,7.8l1.9,1.9L126.7,464H117.7z M142.9,464l-22.4-149.2l4.6-4.6c10.4-10.4,27.3-10.4,37.7,0l5.3,5.3
			l7.4,148.5H142.9z M232,464h-40.4l-7.4-148.9l5-5c10.4-10.4,27.3-10.4,37.7,0l5.1,5.1L232,464L232,464z M288.4,464H248V315.3
			l5.1-5.1c10.4-10.4,27.3-10.4,37.7,0l5,5L288.4,464z M304.4,464l7.4-148.5l5.3-5.3c10.4-10.4,27.3-10.4,37.7,0l4.6,4.6L337.1,464
			H304.4z M362.3,464h-9l22.2-148.2l1.9-1.9c10.3-10.4,27.1-10.4,37.5-0.2L362.3,464z M427.7,303.9L427.7,303.9
			c-1.8-1.9-3.6-3.5-5.5-4.9c-0.3-0.2-0.6-0.5-0.9-0.7c-1.9-1.4-3.9-2.6-6-3.6c-0.4-0.2-0.8-0.4-1.1-0.6c-2.1-1-4.3-1.8-6.6-2.4
			c-0.3-0.1-0.6-0.2-1-0.2c-2.4-0.6-4.9-1-7.4-1.2c-1-0.1-2-0.1-3-0.1c-1,0-1.9,0.2-2.9,0.3c-1.3,0.1-2.5,0.2-3.8,0.3
			c-1.4,0.2-2.8,0.6-4.1,1c-1.2,0.3-2.4,0.6-3.6,1c-1.5,0.6-3,1.2-4.4,2c-0.9,0.5-1.9,0.8-2.8,1.4c-2.3,1.4-4.5,2.9-6.6,4.7
			l-1.9-1.9c-16.7-16.6-43.7-16.6-60.4,0l-1.8,1.8l-1.8-1.8c-16.7-16.6-43.7-16.6-60.4,0l-1.8,1.8l-1.8-1.8
			c-16.7-16.6-43.7-16.6-60.4,0l-1.8,1.8l-1.8-1.8c-16.7-16.6-43.7-16.6-60.4,0l-1.9,1.9c-10.5-9.4-25-12.8-38.6-9.3
			c-0.3,0.1-0.7,0.1-1,0.2c-2.3,0.6-4.5,1.4-6.6,2.4c-0.4,0.2-0.8,0.4-1.1,0.6c-2.1,1-4.1,2.2-6,3.6c-0.3,0.2-0.6,0.5-0.9,0.7
			c-1.9,1.5-3.7,3.1-5.4,4.9l-0.1,0.1c-2.8-4.8-4.3-10.3-4.3-15.9c0-17.7,14.3-32,32-32h320c17.7,0,32,14.3,32,32
			C432,293.6,430.5,299.1,427.7,303.9z"/>
	</g>
</g>
</svg>
