<svg id="Capa_1" enable-background="new 0 0 512 512" height="512" viewBox="0 0 512 512" width="512" xmlns="http://www.w3.org/2000/svg"><g id="XMLID_1089_"><g id="XMLID_273_"><path id="XMLID_276_" d="m502 280.062h-27.223v-126c0-10.89-1.647-21.633-4.896-31.931-1.662-5.267-7.277-8.188-12.546-6.527-5.267 1.662-8.189 7.279-6.527 12.546 2.634 8.348 3.97 17.066 3.97 25.912v126h-51.928c4.514-6.908 7.15-15.15 7.15-24v-20c0-24.262-19.738-44-44-44h-11.15c4.514-6.908 7.15-15.15 7.15-24v-20c0-24.262-19.738-44-44-44h-28c-13.682 0-25.924 6.279-34 16.104-8.076-9.826-20.318-16.104-34-16.104h-28c-24.262 0-44 19.738-44 44v20c0 8.85 2.636 17.092 7.15 24h-11.15c-24.262 0-44 19.738-44 44v20c0 8.85 2.636 17.092 7.15 24h-69.15v-126c0-47.42 38.58-86 86-86h242.777c9.218 0 18.284 1.448 26.947 4.303 5.248 1.731 10.899-1.121 12.629-6.366 1.729-5.246-1.122-10.899-6.367-12.628-10.687-3.523-21.86-5.309-33.209-5.309h-81.834c1.957-4.289 3.057-9.048 3.057-14.062 0-18.748-15.252-34-34-34s-34 15.252-34 34c0 5.014 1.1 9.773 3.057 14.062h-99.057c-58.449 0-106 47.551-106 106v126h-10c-5.523 0-10 4.477-10 10 0 36.393 29.607 66 66 66h152v63.938h-21.509c-2.652 0-5.196 1.054-7.071 2.929l-46.29 46.29c-1.875 1.875-2.929 4.419-2.929 7.071v25.71c0 5.523 4.477 10 10 10h211.599c5.523 0 10-4.477 10-10v-25.71c0-2.652-1.054-5.196-2.929-7.071l-46.291-46.29c-1.875-1.875-4.419-2.929-7.071-2.929h-21.509v-63.938h152c36.393 0 66-29.607 66-66 0-5.522-4.477-10-10-10zm-246-260.062c7.72 0 14 6.28 14 14s-6.28 14-14 14-14-6.28-14-14 6.28-14 14-14zm-14 192.062h28c13.234 0 24 10.766 24 24h-76c0-13.233 10.766-24 24-24zm76-20h-28c-13.234 0-24-10.766-24-24h76c0 13.234-10.766 24-24 24zm-96 0h-28c-13.234 0-24-10.766-24-24h76c0 13.234-10.766 24-24 24zm-4 64h76c0 13.234-10.766 24-24 24h-28c-13.234 0-24-10.766-24-24zm96 0h76c0 13.234-10.766 24-24 24h-28c-13.234 0-24-10.766-24-24zm76-20h-76c0-13.234 10.766-24 24-24h28c13.234 0 24 10.767 24 24zm-100-112h28c13.234 0 24 10.766 24 24h-76c0-13.233 10.766-24 24-24zm-96 0h28c13.234 0 24 10.766 24 24h-76c0-13.233 10.766-24 24-24zm-48 88h28c13.234 0 24 10.766 24 24h-76c0-13.233 10.766-24 24-24zm-24 44h76c0 13.234-10.766 24-24 24h-28c-13.234 0-24-10.766-24-24zm229.799 224.371v11.567h-191.598v-11.567l40.432-40.433h110.733zm-77.799-60.433h-36v-63.938h36zm172-83.938h-380c-21.931 0-40.327-15.428-44.905-36h469.811c-4.579 20.572-22.975 36-44.906 36z"/><path id="XMLID_290_" d="m437.09 96.61c2.63 0 5.21-1.07 7.07-2.93s2.93-4.44 2.93-7.07-1.07-5.21-2.93-7.07-4.44-2.93-7.07-2.93c-2.64 0-5.21 1.07-7.07 2.93-1.87 1.86-2.93 4.44-2.93 7.07s1.06 5.21 2.93 7.07c1.86 1.86 4.43 2.93 7.07 2.93z"/></g></g></svg>