<?xml version="1.0" encoding="utf-8"?>
<!-- Generator: Adobe Illustrator 22.1.0, SVG Export Plug-In . SVG Version: 6.00 Build 0)  -->
<svg version="1.1" id="Capa_1" xmlns="http://www.w3.org/2000/svg" xmlns:xlink="http://www.w3.org/1999/xlink" x="0px" y="0px"
	 viewBox="0 0 512 512" style="enable-background:new 0 0 512 512;" xml:space="preserve">
<g id="XMLID_1089_">
	<g id="XMLID_273_">
		<path id="XMLID_276_" d="M502,280.1h-27.2v-126c0-10.9-1.6-21.6-4.9-31.9c-1.7-5.3-7.3-8.2-12.5-6.5c-5.3,1.7-8.2,7.3-6.5,12.5
			c2.6,8.3,4,17.1,4,25.9v126h-51.9c4.5-6.9,7.1-15.1,7.1-24v-20c0-24.3-19.7-44-44-44h-11.1c4.5-6.9,7.1-15.1,7.1-24v-20
			c0-24.3-19.7-44-44-44h-28c-13.7,0-25.9,6.3-34,16.1c-8.1-9.8-20.3-16.1-34-16.1h-28c-24.3,0-44,19.7-44,44v20
			c0,8.9,2.6,17.1,7.1,24H146c-24.3,0-44,19.7-44,44v20c0,8.9,2.6,17.1,7.2,24H40v-126c0-47.4,38.6-86,86-86h242.8
			c9.2,0,18.3,1.4,26.9,4.3c5.2,1.7,10.9-1.1,12.6-6.4c1.7-5.2-1.1-10.9-6.4-12.6c-10.7-3.5-21.9-5.3-33.2-5.3h-81.8
			c2-4.3,3.1-9,3.1-14.1c0-18.7-15.3-34-34-34s-34,15.3-34,34c0,5,1.1,9.8,3.1,14.1H126c-58.4,0-106,47.6-106,106v126H10
			c-5.5,0-10,4.5-10,10c0,36.4,29.6,66,66,66h152V420h-21.5c-2.7,0-5.2,1.1-7.1,2.9l-46.3,46.3c-1.9,1.9-2.9,4.4-2.9,7.1V502
			c0,5.5,4.5,10,10,10h211.6c5.5,0,10-4.5,10-10v-25.7c0-2.7-1.1-5.2-2.9-7.1l-46.3-46.3c-1.9-1.9-4.4-2.9-7.1-2.9H294v-63.9h152
			c36.4,0,66-29.6,66-66C512,284.5,507.5,280.1,502,280.1z M256,20c7.7,0,14,6.3,14,14s-6.3,14-14,14s-14-6.3-14-14S248.3,20,256,20
			z M242,212.1h28c13.2,0,24,10.8,24,24h-76C218,222.8,228.8,212.1,242,212.1z M318,192.1h-28c-13.2,0-24-10.8-24-24h76
			C342,181.3,331.2,192.1,318,192.1z M222,192.1h-28c-13.2,0-24-10.8-24-24h76C246,181.3,235.2,192.1,222,192.1z M218,256.1h76
			c0,13.2-10.8,24-24,24h-28C228.8,280.1,218,269.3,218,256.1z M314,256.1h76c0,13.2-10.8,24-24,24h-28
			C324.8,280.1,314,269.3,314,256.1z M390,236.1h-76c0-13.2,10.8-24,24-24h28C379.2,212.1,390,222.8,390,236.1z M290,124.1h28
			c13.2,0,24,10.8,24,24h-76C266,134.8,276.8,124.1,290,124.1z M194,124.1h28c13.2,0,24,10.8,24,24h-76
			C170,134.8,180.8,124.1,194,124.1z M146,212.1h28c13.2,0,24,10.8,24,24h-76C122,222.8,132.8,212.1,146,212.1z M122,256.1h76
			c0,13.2-10.8,24-24,24h-28C132.8,280.1,122,269.3,122,256.1z M351.8,480.4V492H160.2v-11.6l40.4-40.4h110.7L351.8,480.4z M274,420
			h-36v-63.9h36V420z M446,336.1H66c-21.9,0-40.3-15.4-44.9-36h469.8C486.3,320.6,467.9,336.1,446,336.1z"/>
		<path id="XMLID_290_" d="M437.1,96.6c2.6,0,5.2-1.1,7.1-2.9s2.9-4.4,2.9-7.1s-1.1-5.2-2.9-7.1s-4.4-2.9-7.1-2.9
			c-2.6,0-5.2,1.1-7.1,2.9c-1.9,1.9-2.9,4.4-2.9,7.1s1.1,5.2,2.9,7.1C431.9,95.5,434.4,96.6,437.1,96.6z"/>
	</g>
</g>
</svg>
