<?xml version="1.0" encoding="utf-8"?>
<!-- Generator: Adobe Illustrator 22.1.0, SVG Export Plug-In . SVG Version: 6.00 Build 0)  -->
<svg version="1.1" id="Layer_1" xmlns="http://www.w3.org/2000/svg" xmlns:xlink="http://www.w3.org/1999/xlink" x="0px" y="0px"
	 viewBox="0 0 16 16" style="enable-background:new 0 0 16 16;" xml:space="preserve">
<style type="text/css">
	.st0{fill:#FA6100;}
</style>
<title>noun_227267_cc</title>
<desc>Created with Sketch.</desc>
<g id="PROTOTYPE">
	<g id="C05_Design-Principles-Copy" transform="translate(-170.000000, -1298.000000)">
		<g id="_x31_." transform="translate(65.000000, 1057.000000)">
			<g id="Group-8" transform="translate(105.000000, 234.000000)">
				<g id="Group-7" transform="translate(0.000000, 7.000000)">
					<g id="noun_227267_cc">
						<g id="Group">
							<path id="Shape" class="st0" d="M15,8c-0.6,0-1,0.4-1,1v4c0,0.5-0.4,1-1,1H3c-0.5,0-1-0.4-1-1V3c0-0.5,0.4-1,1-1h8
								c0.6,0,1-0.4,1-1s-0.4-1-1-1H3C1.3,0,0,1.3,0,3v10c0,1.6,1.3,3,3,3h10c1.6,0,3-1.3,3-3V9C16,8.4,15.6,8,15,8z"/>
							<path id="Shape_1_" class="st0" d="M5.2,5.8c-0.4-0.4-1-0.4-1.4,0c-0.4,0.4-0.4,1,0,1.4l3.5,3.5C7.5,10.9,7.7,11,8,11
								c0.3,0,0.5-0.1,0.7-0.3l6.5-6.5c0.4-0.4,0.4-1,0-1.4s-1-0.4-1.4,0L8,8.6L5.2,5.8z"/>
						</g>
					</g>
				</g>
			</g>
		</g>
	</g>
</g>
</svg>
