<svg xmlns="http://www.w3.org/2000/svg" viewBox="0 0 449 412"><style type="text/css">  
	.st0{fill:#FFFFFF;}
	.st1{filter:url(#Adobe_OpacityMaskFilter);}
	.st2{mask:url(#mask-2_1_);}
	.st3{fill:#E6E6E6;}
	.st4{fill:none;stroke:#CBCBCB;stroke-width:2;stroke-linecap:round;}
	.st5{fill:none;stroke:#CBCBCB;stroke-width:2;stroke-linecap:round;stroke-linejoin:round;}
	.st6{fill:none;stroke:#F56100;stroke-width:3;stroke-linecap:round;stroke-linejoin:round;}
</style><title>  Group 47</title><desc>  Created with Sketch.</desc><rect class="st0" width="449" height="311"/><defs><filter filterUnits="userSpaceOnUse" x="39" y="19" width="360.5" height="363.5"><feColorMatrix type="matrix" values="1 0 0 0 0  0 1 0 0 0  0 0 1 0 0  0 0 0 1 0"/></filter></defs><mask maskUnits="userSpaceOnUse" x="39" y="19" width="360.5" height="363.5"><g class="st1"><rect class="st0" width="449" height="311"/></g></mask><g class="st2"><path class="st3" d="M144 283.9c0 0-4.7 2.4-9.1 10.7 -4.4 8.4-6.8 20.9-8.5 22.1 -1.8 1.2-10.3 3.3-10.3 3.3l1.5-2.4c0 0 6.9-0.6 8.2-2.7 1.3-2.1 6.2-18.5 8-21.8 1.8-3.3 4.7-6.3 4.7-6.3l4.4-3.9L144 283.9z"/><path class="st3" d="M236 30.2c0 0 2.7 8.2 6.6 10 3.9 1.8 9 3 12.5 6.4 3.6 3.3 4.4 9.4 7 11.7 6 5.5 12.2 1.2 11.9 9.1 -0.2 5.5-3.9 10.9-3.6 10.6 0.3-0.3 3.5-8.9 3.3-12.9 -0.3-4.1 0.3-6.2-1.5-7.1 0 0-7.5 3.3-10.4-7.1 -3.5-12.6-15-11.9-20.2-16.5 -5.2-4.6-5.5-4.3-5.5-4.3L236 30.2z"/><path class="st3" d="M326 84.8c0 0-4.8 8.1-8.7 9.6 -3.9 1.5-8.7-3.3-12.6-6 -3.9-2.7-4.2-8.4-4.2-8.4s-7.5 6.3 10.9 20.3c1.9 1.4 4.3 7.7 4.3 7.7L326 84.8z"/><path class="st3" d="M47.1 216.7c-0.2-0.2 0.1-0.6 0.3-0.4 2.2 1.4 6.2 3.1 12 2.3 9.3-1.3 19.7-7.5 23-9.5 0.3-0.2 0.7 0.2 0.5 0.5 -1.1 2.2-4.7 7.2-14.7 11.2 -6.4 2.6-12.7 3.2-15.1 3.2 -0.4 0-2.3-0.5-2.5-0.9C50.1 222.1 49.6 219.8 47.1 216.7"/><path class="st3" d="M234.6 215l2.4 5.3c0 0-5.5 16.9-7 20.5 -1 2.4-5.1 9.7-7.7 14.3 -1.4 2.4-3.6 4.2-6.3 5C216 260 235.1 220.9 234.6 215"/><path class="st3" d="M346 212c0 0-7.3-16.1-7.3 0 0 18.3-4.1 22.6-9.4 35.6 -5.3 13 7.2-14.4 5-28.7 -2.2-14.4 0.3-22.8 2.2-22.8C345 195.7 346 212 346 212"/><path class="st3" d="M165.6 181.6l-14.4-8.6 -1.2 2.7 0.9 5.7c0.2 1.1 1.4 1.8 2.5 1.4 1.9-0.7 5.5-1.2 11.7 0.2C165.9 183.2 166.4 182 165.6 181.6"/><path class="st3" d="M299 76.3c0 0-3 2.7-3.5 4.9 -0.6 3.1-7.5 2.8-7.5 2.8l0.3-1.2L288 80c0 0 2.1 1.9 3.7 1.1C293.3 80.3 297.4 74.7 299 76.3"/><path class="st3" d="M125.4 237.8c0 0 4.5 2.4 10.3 5.2 5.8 2.7 10 12.8 12.4 16.8 2.4 4 7.6 11 13.6 14.6 4 2.4 9.8 6 15.6 8.7 4.5 2.1 16.3 0.1 19.4-0.9 14.5-4.9 12.1-7.9 12.1-7.9s-13.6 7.1-26.4 5.8c-11-1.1-23-11.4-27-19.2 -11.5-22.9-25.1-23.6-25.1-23.6S123.3 234.1 125.4 237.8"/><path class="st3" d="M116.5 234.4c0.7 3.4-1.3 8.9-6-4.8 -1.6-4.7 0-18.1-7.8-27.4 -2.1-2.6-5.4-6.9-6.3-10.5 -0.9-3.6 1.7-2.4 1.7-2.4s-4.1 11-1 20 12.1 36 13.2 37.9c1.1 2 3.8 2.9 3.2 2.9C112.9 250 118.6 248.2 116.5 234.4"/><path class="st3" d="M323.5 241c0 0 8 12-4.4 32.2 -1.3 2.2-5.6 10.5-6.5 14.8 -3.1 14.6-17.4 38.4-18.9 42.6 -1.5 4.2-3 21.9-13.7 21.3 -10.8-0.6-17.9 0-17.9 0 -0.2 1 6.4-7.3 13-16.1 3.2-4.2 7.8-7.4 9-11.7 6.9-25.1 19.9-29.4 24.1-39.6 1.9-4.6 3.2-11 6.5-16.5 1.8-3 5.8-4.7 7-8C324.4 251.5 323.5 241 323.5 241"/><path class="st3" d="M250.4 117.5c-5.7 1.8-9.7 3.6-13 4.7 -1.1 0.4-0.1 1.6 4.5 1.4 3.2-0.1 7.1-1.9 11-2.4 4.5-0.5 10.4 0 11.6 0 1.2 0-1.8 7.2 2.7 10.2 3 2 3.4 7.8 4 12.3 0.8 6.1-0.2 12.2-2.4 14.7 -1.9 2.1 4.6-2.4 6.7-13.5 0.9-5-0.5-15.2-2.6-20.9 -2.1-5.7 2.7-10.2 4.9-12.3 2.1-2.1 12.8-15 9.8-14.7 -3 0.3-13.1 15.9-27.6 19.4C256.3 117.3 253.1 116.7 250.4 117.5"/><path class="st3" d="M340.2 154.3c0.7 0.4 1.2 0.6 0.3 0.6 -2.7 0-15.6 4.2-17.5 4.7 0 0-10.3 1.8-15.4 3.8 -6 2.3-7.5 6.4-9.3 9 -1.3 1.9-2.5 1.8-4.8 1.5 -4.2-0.7-12.7-2.3-17.5-2.9 -2.7-0.3-17.4-3.6-15.9-3.6 1.5 0 10.1-3.1 10.1-3.1s3.3 0 7.1 0.9c3.8 0.9 14.9 4.4 14.9 4.4 -0.8 0.6 2.1 1.3 6-2.9 1.5-1.6 5.1-4.7 10.6-6.4C314.3 158.4 330.6 152.6 340.2 154.3"/><path class="st3" d="M179.8 129.4c15.6 4.8 27.2-2.8 27.2-2.8s-12.2 4.5-24.8-0.7c-13-5.4-18.2-12.9-18.2-12.9S168.6 125.9 179.8 129.4"/><path class="st4" d="M0 87l134 14"/><path class="st4" d="M0 106l122 11"/><path class="st4" d="M1 246l41-14"/><path class="st4" d="M0 267c28.2-11.6 51-21 51-21"/><polyline class="st5" points="25 85.2 25 0 44 10.1 44 86 "/><polyline class="st5" points="57 89 57 67 88 72.6 87.9 90 "/><polyline class="st5" points="108 94.6 108 48 126 55 126 97 "/><polyline class="st4" points="108 48 92 55.1 92 94 "/><path class="st4" d="M152 83v7"/><path class="st4" d="M133.4 97c-0.8-1.9 0-19 0-19"/><polygon class="st5" points="153 80 152.7 52.4 133.3 44 133 75.2 "/><path class="st4" d="M132 44l-10 7"/><polyline class="st5" points="158 86 158.3 55 176 62.7 175.7 83.3 "/><path class="st4" d="M55 67l-9 3"/><path class="st4" d="M106 123.7c-3 0.3-38-2.7-38-2.7v36l38-1.2V123.7z"/><polyline class="st4" points="106 160 106 178.7 76 181 "/><path class="st4" d="M66 121l-15 3"/><path class="st4" d="M158 55l-5 2"/><path class="st4" d="M132 75l-5 1"/><polyline class="st5" points="57 64.2 57.3 43 88 52.4 87.9 70 "/><path class="st4" d="M55 43l-9 5"/><polyline class="st5" points="58 39.8 58.3 18 89 32 88.9 50 "/><path class="st4" d="M56 18l-10 7"/><path class="st6" d="M240.7 98c0 0-1.9 2-4 3 -2.5 1.1-5.4 1.3-5.4 2.1 0 0.9 1.7 4.8 1.7 5.1 0.2 4-0.9 3.9-1.7 6.3 -1.8 5.7 6.7 11.1 17.3 7.5 4.3-1.5 15.2-1.2 15.2-1.2s0.2 0.5-0.2 3.8c-0.2 2.3 1.1 4.4 1.5 4.8 3 3 4.4 1.4 5.8 18.4 0.5 6-2.7 10.2-2.7 10.2"/><path class="st6" d="M236.5 30c0 0-4.4 5.1-4.4 13.5 0 5.7-0.3 13 0 14.2 0.3 1.2 2.6 4.9 2 5.8 -2.2 3.3-8.1 10.8-10.7 14.7 -3.1 4.5-3.2 7.7 0.6 9 5.2 1.8 7.7 1.5 7.7 1.5s-0.3 1.5-0.6 3.9c-0.3 2.1-0.3 1.7-0.3 2.2 0 0.8 6.5-0.3 7.3-0.3"/><path class="st6" d="M316 108c0.1-0.7 1.8-4.9 3.9-9.2 2.5-5.2 5.4-10.1 6.1-10.8"/><path class="st6" d="M318 134c0 0-2-10.1-2-20"/><path class="st6" d="M342.4 155.9c0 0 2.1-1.2-1.8-6 -3.9-4.8-2.7-6.7-3.3-9.7 -0.6-3 1.8-7.9-4.5-8.2 -6.3-0.3-12 3-28.6 11.8 -16.6 8.8-34.9 15.4-42.4 17.2 -7.5 1.8-9.6 2.4-11.1 5.1C249.1 168.9 235 192 235 192"/><path class="st6" d="M259 166.9c0 0 7.4-2.2 14-1.9 6.7 0.3 19.8 6.1 21.6 4.9 1.8-1.2 4.8-7.1 13.6-10.2 3.5-1.2 19.1-5.3 23.3-6.2 4.2-0.9 8.5 0 8.5 0"/><path class="st6" d="M320 150c0 0-9.8 2.7-17.5 3.6 -7.8 0.9-18.5 4.4-18.5 4.4"/><path class="st6" d="M339.6 158c0 0-0.6 1.2 1.2 5.4 1.8 4.2 11.2 22.5 12.7 26.1 1.5 3.6 5.2 20.7 4.2 27.9 -0.9 7.2-9.7 35.7-17 46.2 -7.3 10.5-11.2 16.2-17.9 36 -6.7 19.8-14 42.3-14 42.3"/><path class="st6" d="M349.7 228c0 0 9.6-15.7-3.9-32.2s-15-14.5-23.1-16.9c-8.1-2.4-8.4-2.7-13.2 0 -4.8 2.7-21.6 15.4-21.6 15.4"/><path class="st6" d="M328 249c0 0 7.5-14.3 5.6-30.5 -1.9-16.2-0.3-21.7 5-20.3 4.8 1.3 8.4 11.4 5.2 19.3"/><path class="st6" d="M324 238c0 0 0 18.2-1.8 22.1 -1.8 3.9-6.2 6.9-6.2 6.9"/><path class="st6" d="M148 285.2c3.7 1.3 4.6 1.5 7.2 2.4 3.6 1.2 7.6 3 7.6 3s4.5 1.5 8.5 3.6c3.9 2.1 10 2.1 13 3.3 3 1.2 4.8 1.5 4.8 1.5s7.3-0.9 9.4 0.6c2.1 1.5 3.3 2.7 3.3 2.7s4.8-0.9 6.3 0.3c1.5 1.2 0.3-0.9 4.5-1.8 4.2-0.9 4.5-1.2 6.3 0.6 1.8 1.8 4.5 1.2 4.5 1.2s-1.2 1.2-2.1-2.1c-0.9-3.3 0.9-7.8 1.8-8.7 0.9-0.9 3-9.3 3.9-11.4 0.9-2.1-1.2-4.8 1.8-6 3-1.2 2.4-1.2 3.9-3 1.5-1.8 3.3-6.3 5.4-9.3 2.1-3 9.4-6 9.7-8.7 0.3-2.7 1.5-10.2 3.3-9.9 1.8 0.3 4.5 0 4.8-2.1 0.3-2.1-5.4-0.9 4.8-6.3"/><path class="st6" d="M316 265c0 0-2.1 11.2-2.7 13.3 -0.6 2.1-3.3 5.4-7.2 9.7 -3.9 4.2-12.9 19.6-15.9 25.4 -3 5.7-5.7 13.6-9.6 16.6 -3.9 3-9.9 18.1-19.8 22.3 -9.9 4.2-20.1 14.2-52.3 4.8 -32.2-9.4-57.7-18.1-60.4-19.9 -2.7-1.8-13.8-11.2-19.5-12.1 -5.7-0.9-10.2-0.9-15-1.5 -3.4-0.4-14.4-2.1-15.6-3.6 -2.4-3.1 1.8-13 5.1-25.4 3-11.1 2.4-13.6 7.8-19.6 5.4-6 7.8-3.3 12.6-0.9 0.7 0.4 1.5 0.8 2.4 1.2"/><path class="st6" d="M328.5 84c0 0 5.1-5.7 6.6-12.6 1.2-5.3 3.9-10.2 3.9-17.8 0-7.8-3.7-24.3-12.7-34.6C315.8 7 310.8 5.5 299.2 3.4c-9.6-1.8-21.3 3.6-33.1 4.2 -21.9 1.1-20.2-4.5-20.2-4.5s-10.2 4.2-12.4 9.6c-1.7 4.3-0.3 17.1 13 24.7"/><path class="st6" d="M249 39c0 0 9.1 1.6 11.5 7.8 2.7 7.2 3.9 12.2 12.4 11.6 0.5 0 1.7 3.8 1.2 9.6 -0.3 3.5-3 9.9-3 9.9s5.1 0.6 9.3-0.3c2.5-0.5 7.6-19.4 7.6-19.4"/><path class="st6" d="M289.8 53.8c1.1-1.5 2.6-3 4.5-3.5 5.6-1.5 13.8 2.7 12.5 14.4 -1 9.3-6.6 11-11.3 13.2 -1.2 0.6-1.6 3.3-5 3.3 -1.4 0-2.2-0.9-2.2-0.9s-0.6 2.1-0.3 2.7"/><path class="st6" d="M292.2 64.6c-0.2-1.2-0.1-5.1 2.9-5.5 3-0.4 4.8 1.9 5.3 3.2 0.9 2.1 1.1 5.8-3.1 8.8 -4.5 3.2-6.4 4-6.4 4"/><path class="st6" d="M266 138c0 0-1.2 1.8-8.7 2.4 -5.4 0.4-16.2 0.7-21.9 0.8 -2.2 0-4 1.6-4.5 3.7 -1.3 5.7 0 16.6-0.7 20 -0.9 4.8-8.1 11.1-8.1 11.1"/><path class="st6" d="M267 148c0 0-4.5 1.5-9.1 5 -4.5 3.6-13.3 9.5-19.3 13.7 -6 4.2-13.6 11.3-13.6 11.3"/><path class="st6" d="M151 99c-13.9 3.3-11.5 6.4-15.5 11.4 -5.7 7.3-7.2 15.9-7.5 23.9 -0.3 7.9 3.6 19.7 3.6 19.7"/><path class="st6" d="M173 183.4c0 0 18.8 6 26.8 4.3 8-1.7 13.9-9.6 15.7-12.5 2.3-3.7 4.2-9.3 3.2-14.5 -1.4-7.1-4.6-13.8-4.3-18.1 0.1-2.2 0.7-10-0.6-16.6"/><path class="st6" d="M191 196.2c0 0-21.5-3.3-29.4 0 -7.9 3.3-25.8 15.3-28.8 19.5 -3 4.2-15.1 12.9-15.5 19.5 -0.3 6.6-0.6 13.2-3.9 15.6 -3.3 2.4-12.9-35.7-15.6-41.4 -2.7-5.7-3.1-18.4 3.9-22 7-3.6 13-6.2 23.5-7.2 21.2-2.1 33 8.7 41.2 9.3"/><path class="st6" d="M146.3 158c0 0-1.9-6.1-8.2-4.8 -6.1 1.2-5.4 8.1-4.5 10.3 0 0 2.1 5.7 6.1 8.7 3.9 3 7.3 2.4 9.4 2.1 2.1-0.3 3.6-1.8 3.6-1.8l6.4 4.5"/><path class="st6" d="M255 56c0 0-7.9-3.5-13.6-2.9 -3.8 0.4-5.4 2.3-5.4 2.3"/><path class="st6" d="M238 62c0 0 0-1.6 2.9-1.9 3.7-0.4 6.1 1 6.1 1"/><path class="st6" d="M139.7 161c0 0-2.1 3.8 0.9 7.2 1 1.1 2.3 1.6 3.5 1.8 1.5 0.3 2.5-1.5 1.5-2.6 -0.2-0.3-0.4-0.4-0.4-0.5 -1.6-2.5 0.7-3 0.7-3"/><path class="st6" d="M125 235.7c0 0 0.6 1.5 7.5 3 6.9 1.5 15.3 9.7 17.1 14.2 1.8 4.5 11.1 17.2 16.8 20.9 5.7 3.6 12.9 8.8 23.7 6.7 10.8-2.1 13.7-0.9 18.6-6.7 4.9-5.7 19.8-35.4 21-40.8 1.2-5.4 5.4-18.5 6.3-20s-4.5-6-4.5-6"/><path class="st6" d="M197 215c0 0 4.1-9.4 4.4-12.2 0.3-2.8-3.5-4.1 0-4.7 3.5-0.6 17.1 6.3 19.8 8.8 2.7 2.5 7.8 3.9 7.8 3.9"/><path class="st6" d="M195 217c0 0-2.4 1.2-4.2 3.2 -1.8 2-2.1 8.2-2.1 8.2s-5.1 1.2-6 0c-0.9-1.2-7.8-5.2-14.7 9.6"/><path class="st6" d="M194 206.8c0 0-3.6-7.3-19-3.8 -15.4 3.5-19 7-19 7"/><path class="st6" d="M227.8 208c0.8-3.7-1.8-5-1.8-5"/><path class="st6" d="M220 195.3c0 0 5.3-3.6 8.4-1.8 3.1 1.8 4.4 6 3.1 7.5 -1.2 1.5-3.4 0.9-3.4 0.9s-4.3-1.2-1.4-3.3"/><path class="st6" d="M229 192L229 192c0-0.8-0.2-1.5-0.7-2.1 -0.4-0.6-1.3-0.7-2.1-1 -1.5-0.6-3.4-1.7-6.2 0.3 -2.8 2-4 2.9-4 2.9"/><path class="st6" d="M226 186.4c-0.9-3.1-6.1-2.3-6.1-2.3s-2.8 0.3-4.4 1.1c-1.6 0.8-4.4 2.8-4.4 2.8"/><path class="st6" d="M205 198c0 0 0.6-3.4 0.9-6.5 0.2-1.8 0.8-4 3.1-5.6 1.6-1.2 5-2 5.9-2.5 1.2-0.6 2.2-0.5 3.1-0.2"/><path class="st6" d="M198.6 140c0 0-2.6 4.8-2.6 6.6 0 2.7 2.6 6 4.6 8.4 0.8 1 3.3 3.3 2 5.4 -1.3 2.1-3 2.7-3 2.7"/><path class="st6" d="M201 146c0 0 1.7-1.7 3.9-1.9 3.4-0.4 5.1 1 5.1 1"/><path class="st6" d="M184 147.2c0 0-1.8-1.6-6.2-1.1 -2.5 0.3-5.8 1.9-5.8 1.9"/><path class="st6" d="M203 172c0 0-4.1 0.7-6.7 0.9 -2.5 0.2-6.3 0-6.3 0"/><path class="st6" d="M45 227c0 0 4.6-2.3 11.7-3 10.1-1.1 20.1-5.4 25.2-11.8 4-5 2.6-12.2 2.6-12.2l4.5 11.8"/><path class="st6" d="M88.9 313c0 0-3 0-4.5-8.8 -0.1-0.7-1.9-7.1-2.1-10.9 -0.2-4.7-0.6-4.8 0-7.3 1-4.5 0.8-8.5 2.1-12.8 1.8-6.1 10.2-8.9 12-10.6 7.2-7 12.6-8.5 12.6-8.5"/><path class="st6" d="M114.1 257c-0.5 0.3 2.4 13.4 2.9 15"/><path class="st6" d="M72 256c0.4 0.9 0.7 1.7 0.9 2.5 0.9 2.9 4.7 6.9 6.7 9 1.3 1.4 2.4 4.5 2.4 4.5"/><path class="st6" d="M45 227c3 5.5 8.2 8.3 13 11"/><path class="st6" d="M208 124.9c0 0-6.3 6.1-24.1 1.2 -5.7-1.6-11.8-4.9-19.9-14.1"/><path class="st6" d="M163 113c-0.9 6.8-11.2 13.3-17.3 13.9 -6.6 0.6-8.7-1.2-8.7-1.2"/><path class="st6" d="M261.7 319c0 0 2.4-13.2-7.1-25.2 -9.1-11.6-16.2-17.4-15.6-11.4 0.6 6 12.1 14.7 12.4 21.6"/><path class="st6" d="M163 115c0 0-0.2 3.8-1.5 6.8 -2.8 6.8-8.5 9.2-8.5 9.2"/><path class="st6" d="M312 166v7"/><path class="st6" d="M264 232c0 0 10.3 5.1 22 9"/><path class="st6" d="M269 228.2c0 0 9.3-1.8 15.3-1 6 0.8 15.7 4.8 15.7 4.8"/><path class="st6" d="M267 223c0 0 4.8-9.3 13-19"/><path class="st6" d="M219 269l2 20"/><path class="st6" d="M150 177l1 4"/><path class="st6" d="M202 179.3c0 0-1.5-1.3-3.6-1.3 -2.1 0-4.4 2-4.4 2"/><path class="st6" d="M140 129c0 0 0.3 6.5-1.2 11.7 -1.6 5.2-3.7 8.3-3.7 8.3"/><path class="st6" d="M300.1 80c0 0-3.4 8.7 1.8 12.2C311.2 98.5 315 108 315 108"/><path class="st6" d="M246 93c0 0 1.3 0.7 2 2"/><path class="st6" d="M215 122c-1.3-6.6-4.6-13.4-10.4-18.2 -11.9-9.9-18.5-13.2-33.1-10.2 -8.6 1.8-9.7-1.5-12.5-2.6"/><path class="st6" d="M159 95c0 0-3.8-1.2-7-1"/><path class="st6" d="M228 83l3 1"/><path class="st6" d="M171 142c0 0 3.5-2.7 7.8-3 4.4-0.3 7.2 0.9 7.2 0.9"/><path class="st6" d="M202 136.5c0.7-0.2 1.5-0.4 2.5-0.5 3.1-0.2 6.5 1 6.5 1"/><path class="st6" d="M175 224c0 0-8.7 4-12.1 10.4 -3.4 6.4-5.6 5.5-4.7 1.2"/><path class="st6" d="M141.2 280.9l-0.4-0.2 -7.5-3.2c-1.6-0.7-3.3-0.6-4.8 0.2 -3.5 1.9-9.4 6.3-11.9 14.5 -3.2 10.6-4.2 15.7-4.6 17.7 -0.1 0.7-0.1 1.3 0.1 2l2.4 8.1 8.6-3.2c1.3-0.5 2.2-1.5 2.6-2.9 1.2-4.4 4.1-14.3 5.9-18.4 2.8-6.3 7.1-10.1 9.7-11.9C142.3 282.9 142.2 281.5 141.2 280.9z"/><path class="st6" d="M273 59l7 1"/><path class="st6" d="M92.3 213.4l4.7 9.9c0.7 1.5 1 3.1 0.9 4.8 -0.2 3.2 0.8 10.6-5.6 16 -12.3 10.3-24 8.1-24.9 7l-7.1-8.4c-0.7-0.7-0.2-2 0.8-1.9 4 0.4 10.9-0.4 20.9-7.2 8.1-5.5 9.1-14.7 9-19.8C91 213 92 212.7 92.3 213.4z"/><path class="st6" d="M46 219c0 0-0.5 0.6-0.7 1.5 -0.2 0.9-0.3 3.5-0.3 3.5"/><path class="st6" d="M85 200c0 0-0.7-2-4-2"/><path class="st6" d="M81 258.7c0 0 9.4-4.8 7.8-1.6 -1.6 3.2-5.5 4.4-4.6 5.9"/><path class="st6" d="M81 203c-2.1-5-5.5-20.6-6.5-27.6 -0.9-6.3-10.8-10.8-17.3-18.7 -0.6-0.7-1.5-0.9-2.4-0.8 -1.1 0.1-2.1 0.8-2.7 3.1 -0.5 2 0.7 4.1 2 5.9 3.4 4.9 8.8 8.3 8.8 8.3s-1.3 1-0.5 10.2c0.5 5.9 3.4 8.3 3.4 8.3"/><path class="st6" d="M51 220c0 0-2.3-5.1-5.4-5.9 -3.1-0.8-10.2-3.4-14-5.6 -3-1.7-5.8-3.9-8.1-6.8 -1.2-1.5-7.4-11.3-2.8-14.4 1-0.7 2.1-1.9 4.6-3.5 1-0.6 4.4-3.8 5.4-2.6 1 1.1 1.7 3.1-1.1 6.1 -0.6 0.6-2.8 2.3-3 3.1 -0.2 1 1.5 2.3 2.2 3.7"/><path class="st6" d="M18 192c0 0-3.5-3.7-3.7-5 -0.2-1.3-0.7-2.7 1-4.4 1.9-1.9 2.9-3.3 3.8-4.5 4.4-5.6 5.7-5.5 6.9-4.5 0.7 0.6 1.7 2.5 0.4 4.9"/><path class="st6" d="M13.6 180c0 0-1.1-2.9-1.4-4.4 -0.3-1.5-0.3-4.4 0-5.2 0.3-0.9-0.2-1.1 2.8-3.5 1-0.8 3.8-3 4.5-1.2 0.2 0.6 1.4 2.6-1.1 5.5 -1.9 2.1-1.7 2.6-1.7 2.6"/><path class="st6" d="M12 165c0 0-3.6-3.5-5.7-5.8 -1.9-2.1-1.7-5.7 0.7-6.2"/><path class="st6" d="M42 195.5c0 0 5.7-3.7 13.1 0.3 6.4 3.4 8.9 9.2 8.9 9.2"/><path class="st6" d="M16.3 163l-5.5-8.7c-1.5-2.3-0.8-5.5 1.5-7l19.5-12.5c2.3-1.5 5.4-0.8 6.9 1.5L50 155.6"/><path class="st6" d="M31 188.1l1.3 1.9c1.4 2 4 2.6 6 1.3L53 182"/><path class="st6" d="M28 138l25 42"/><path class="st6" d="M22 140l25 42"/></g></svg>