<?xml version="1.0" encoding="UTF-8"?>
<svg role="img" width="449px" height="412px" viewBox="0 0 449 412" version="1.1" xmlns="http://www.w3.org/2000/svg" xmlns:xlink="http://www.w3.org/1999/xlink">
    <!-- Generator: Sketch 46.2 (44496) - http://www.bohemiancoding.com/sketch -->
    <title>Group 47</title>
    <desc>Created with Sketch.</desc>
    <defs>
        <rect id="path-1" x="0" y="0" width="449" height="311"></rect>
    </defs>
    <g id="PROTOTYPE" stroke="none" stroke-width="1" fill="none" fill-rule="evenodd">
        <g id="Group-47">
            <g id="Group-11" transform="translate(0.000000, 101.000000)">
                <g id="Rectangle-7" fill-rule="nonzero" fill="#FFFFFF">
                    <rect id="path-1" x="0" y="0" width="449" height="311"></rect>
                </g>
                <g id="Page-1-Clipped">
                    <mask id="mask-2" fill="white">
                        <use xlink:href="#path-1"></use>
                    </mask>
                    <g id="path-1"></g>
                    <g id="Page-1" mask="url(#mask-2)">
                        <g transform="translate(40.000000, 20.000000)" id="Group">
                            <g>
                                <path d="M144,283.895074 C144,283.895074 139.283978,286.281938 134.863375,294.636684 C130.44206,302.992151 128.084405,315.523909 126.316164,316.717341 C124.547211,317.910773 116,320 116,320 L117.530483,317.612415 C117.530483,317.612415 124.399858,316.999844 125.72675,314.927193 C127.052931,312.854541 131.915595,296.427553 133.684548,293.144894 C135.452789,289.862956 138.399858,286.878654 138.399858,286.878654 L142.821173,283 L144,283.895074 Z" id="Fill-1" fill="#E6E6E6"></path>
                                <path d="M236,30.2322499 C236,30.2322499 238.704748,38.4025107 242.583499,40.2244811 C246.46297,42.0464514 251.535904,43.2610983 255.115568,46.6021108 C258.696674,49.9423898 259.552133,55.9862851 262.080312,58.3026226 C268.048341,63.7692672 274.288071,59.496732 273.989706,67.3934039 C273.782868,72.8644493 270.132575,78.2914859 270.430941,77.9878241 C270.729306,77.6841624 273.968806,69.099484 273.692061,65.0403922 C273.415316,60.9813004 274.012047,58.8549349 272.221854,57.9439497 C272.221854,57.9439497 264.761997,61.2849622 261.822305,50.8071656 C258.279395,38.1802655 246.857908,38.8917435 241.636513,34.296476 C236.414396,29.7004751 236.116031,30.0041368 236.116031,30.0041368 L236,30.2322499 Z" id="Fill-3" fill="#E6E6E6"></path>
                                <path d="M326,84.817431 C326,84.817431 321.183037,92.9201683 317.284557,94.4253883 C313.385352,95.9313354 308.604606,91.1400821 304.70685,88.429959 C300.807646,85.720563 300.507762,80 300.507762,80 C300.507762,80 293.00996,86.322651 311.45422,100.322651 C313.315089,101.734795 315.80325,108 315.80325,108 L326,84.817431 Z" id="Fill-5" fill="#E6E6E6"></path>
                                <path d="M47.0678744,216.717353 C46.8683134,216.473778 47.1471118,216.1234 47.4090355,216.290137 C49.5689892,217.670904 53.5602079,219.36901 59.4567933,218.572975 C68.8016742,217.309769 79.1832449,211.118213 82.4283112,209.059739 C82.7584671,208.849973 83.1348449,209.232624 82.9521586,209.587612 C81.8032159,211.81897 78.263944,216.754234 68.2660879,220.798954 C61.8603286,223.391447 55.5888328,223.996157 53.1896995,223.999999 C52.7795724,224.000768 50.8859446,223.456759 50.6746448,223.088708 C50.0891682,222.066771 49.557984,219.753966 47.0678744,216.717353" id="Fill-7" fill="#E6E6E6"></path>
                                <path d="M234.589413,215 L237,220.270329 C237,220.270329 231.458187,237.13451 229.999296,240.747951 C229.021536,243.173641 224.888598,250.484168 222.276542,255.028609 C220.881051,257.457935 218.633894,259.237017 216,260 C216,260 235.095904,220.872569 234.589413,215" id="Fill-9" fill="#E6E6E6"></path>
                                <path d="M346,211.97938 C346,211.97938 338.703668,195.900036 338.703668,211.97938 C338.703668,230.293814 334.629377,234.58888 329.323642,247.59082 C324.017907,260.592022 336.523094,233.227138 334.330409,218.849417 C332.136968,204.470957 334.618781,196.073671 336.523094,196.004217 C344.957775,195.699801 346,211.97938 346,211.97938" id="Fill-11" fill="#E6E6E6"></path>
                                <path d="M165.620432,181.584697 L151.246263,173 L150,175.6884 L150.852667,181.412974 C151.020491,182.534223 152.220847,183.212456 153.330141,182.822832 C155.277051,182.14027 158.839737,181.664786 165.021383,182.979403 C165.899637,183.165557 166.383542,182.0407 165.620432,181.584697" id="Fill-13" fill="#E6E6E6"></path>
                                <path d="M299,76.2695831 C299,76.2695831 295.991719,79.0066542 295.542337,81.2118279 C294.913809,84.3002647 288,83.991421 288,83.991421 L288.314264,82.7560463 L288,79.9764532 C288,79.9764532 290.122421,81.8295153 291.732455,81.0574061 C293.343248,80.2852969 297.42868,74.7253647 299,76.2695831" id="Fill-15" fill="#E6E6E6"></path>
                                <path d="M125.393349,237.781488 C125.393349,237.781488 129.936752,240.220302 135.692462,242.964703 C141.448171,245.708368 145.689413,255.769209 148.112562,259.733017 C150.53571,263.696089 155.685633,270.708413 161.744236,274.36737 C165.793791,276.81281 171.549501,280.334804 177.344718,283.056379 C181.888122,285.19034 193.630003,283.182296 196.73137,282.141824 C211.271725,277.263461 208.848576,274.214944 208.848576,274.214944 C208.848576,274.214944 195.211049,281.300904 182.493909,280.007126 C171.494629,278.8886 159.45717,268.592124 155.534186,260.799998 C144.022767,237.933914 130.415236,237.233639 130.415236,237.233639 C130.415236,237.233639 123.273094,234.122532 125.393349,237.781488" id="Fill-17" fill="#E6E6E6"></path>
                                <path d="M116.534959,234.352989 C117.248804,237.741842 115.255236,243.284067 110.557865,229.538244 C108.939625,224.802716 110.557865,211.484224 102.787859,202.156338 C100.640551,199.578542 97.4084016,195.235461 96.5119457,191.624947 C95.6154898,188.013707 98.1756581,189.179421 98.1756581,189.179421 C98.1756581,189.179421 94.0318955,200.135962 97.1817614,209.194949 C100.331627,218.253937 109.27742,245.185255 110.36587,247.141677 C111.454321,249.097372 114.14441,250 113.546773,250 C112.949136,250 118.62669,248.194743 116.534959,234.352989" id="Fill-19" fill="#E6E6E6"></path>
                                <path d="M323.481107,241 C323.481107,241 331.431893,252.995571 319.082048,273.162417 C317.733821,275.364218 313.467563,283.706817 312.548055,287.984831 C309.412056,302.56986 295.174837,326.363543 293.680817,330.571866 C292.187518,334.780189 290.692776,352.513656 279.935109,351.912571 C269.17672,351.312211 262.004701,351.912571 262.004701,351.912571 C261.799003,352.948499 268.377744,344.610256 275.004121,335.832088 C278.155998,331.655707 282.791069,328.426689 283.968964,324.109474 C290.821969,298.993838 303.85892,294.68969 308.024855,284.492293 C309.899958,279.904299 311.261898,273.464411 314.535751,267.991487 C316.327854,264.994772 320.340056,263.339609 321.492689,259.993713 C324.430929,251.462368 323.481107,241 323.481107,241" id="Fill-21" fill="#E6E6E6"></path>
                                <path d="M250.390978,117.544343 C244.664746,119.387836 240.641067,121.138355 237.422271,122.236606 C236.297792,122.620123 237.300029,123.806263 241.874534,123.620315 C245.052828,123.49175 248.942483,121.674406 252.850547,121.214623 C257.348467,120.685835 263.26248,121.214623 264.436298,121.214623 C265.655774,121.214623 262.607086,128.432427 267.180854,131.439543 C270.21776,133.437023 270.534411,139.259497 271.144148,143.77017 C271.974805,149.911514 270.983614,155.951895 268.705198,158.506491 C266.850948,160.585323 273.27823,156.100798 275.413048,144.973017 C276.363002,140.019266 274.955008,129.785629 272.820927,124.071383 C270.686845,118.357863 275.565482,113.846463 277.699564,111.741482 C279.833646,109.635774 290.505527,96.7044498 287.456102,97.0051613 C284.406678,97.3058729 274.345271,112.944328 259.86253,116.402511 C256.251234,117.265423 253.126697,116.663999 250.390978,117.544343" id="Fill-23" fill="#E6E6E6"></path>
                                <path d="M340.200015,154.322527 C340.942062,154.679823 341.405932,154.903748 340.501494,154.903748 C337.820951,154.90445 324.871907,159.106369 323.013513,159.554218 C323.013513,159.554218 312.745742,161.362461 307.636615,163.332155 C301.60703,165.657741 300.099634,169.726288 298.314061,172.323532 C297.006195,174.22654 295.804647,174.161959 293.466363,173.795537 C289.232545,173.131485 280.803506,171.470653 275.97911,170.889432 C273.269438,170.56232 258.60036,167.315063 260.108485,167.315063 C261.615881,167.315063 270.249548,164.204688 270.249548,164.204688 C270.249548,164.204688 273.585481,164.21943 277.345233,165.084242 C281.104257,165.948352 292.260446,169.435678 292.260446,169.435678 C291.469609,170.001456 294.390462,170.707625 298.29003,166.529573 C299.785775,164.927003 303.415906,161.879102 308.842532,160.135439 C314.270615,158.391776 330.551951,152.578864 340.200015,154.322527" id="Fill-25" fill="#E6E6E6"></path>
                                <path d="M179.847222,129.399329 C195.400555,134.230168 207,126.586141 207,126.586141 C207,126.586141 194.801727,131.114368 182.215283,125.908 C169.223728,120.53392 164,113 164,113 C164,113 168.607958,125.908729 179.847222,129.399329" id="Fill-27" fill="#E6E6E6"></path>
                                <path d="M0,87 L134,101" id="Stroke-29" stroke="#CBCBCB" stroke-width="2" stroke-linecap="round"></path>
                                <path d="M0,106 L122,117" id="Stroke-31" stroke="#CBCBCB" stroke-width="2" stroke-linecap="round"></path>
                                <path d="M1,246 L42,232" id="Stroke-33" stroke="#CBCBCB" stroke-width="2" stroke-linecap="round"></path>
                                <path d="M0,267 C28.2344575,255.434793 51,246 51,246" id="Stroke-35" stroke="#CBCBCB" stroke-width="2" stroke-linecap="round"></path>
                                <polyline id="Stroke-41" stroke="#CBCBCB" stroke-width="2" stroke-linecap="round" stroke-linejoin="round" points="25 85.188631 25 0 44 10.1037713 44 86"></polyline>
                                <polyline id="Stroke-43" stroke="#CBCBCB" stroke-width="2" stroke-linecap="round" stroke-linejoin="round" points="57 88.9746169 57 67 88 72.5670728 87.8509788 90"></polyline>
                                <polyline id="Stroke-45" stroke="#CBCBCB" stroke-width="2" stroke-linecap="round" stroke-linejoin="round" points="108 94.5804634 108 48 126 54.9568984 126 97"></polyline>
                                <polyline id="Stroke-47" stroke="#CBCBCB" stroke-width="2" stroke-linecap="round" points="108 48 92 55.0885795 92 94"></polyline>
                                <path d="M152,83 L152,90" id="Stroke-49" stroke="#CBCBCB" stroke-width="2" stroke-linecap="round"></path>
                                <path d="M133.368,97 C132.54,95.1392525 133.368,78 133.368,78" id="Stroke-51" stroke="#CBCBCB" stroke-width="2" stroke-linecap="round"></path>
                                <polygon id="Stroke-53" stroke="#CBCBCB" stroke-width="2" stroke-linecap="round" stroke-linejoin="round" points="153 80 152.697003 52.3998792 133.302997 44 133 75.1997585"></polygon>
                                <path d="M132,44 L122,51" id="Stroke-55" stroke="#CBCBCB" stroke-width="2" stroke-linecap="round"></path>
                                <polyline id="Stroke-57" stroke="#CBCBCB" stroke-width="2" stroke-linecap="round" stroke-linejoin="round" points="158 86 158.30506 55 176 62.6761973 175.69494 83.3423886"></polyline>
                                <path d="M55,67 L46,70" id="Stroke-59" stroke="#CBCBCB" stroke-width="2" stroke-linecap="round"></path>
                                <path d="M106,123.677419 C102.983688,123.97491 68,121 68,121 L68,157 L106,155.809318 L106,123.677419 Z" id="Stroke-61" stroke="#CBCBCB" stroke-width="2" stroke-linecap="round"></path>
                                <polyline id="Stroke-63" stroke="#CBCBCB" stroke-width="2" stroke-linecap="round" points="106 160 106 178.666901 76 181"></polyline>
                                <path d="M66,121 L51,124" id="Stroke-65" stroke="#CBCBCB" stroke-width="2" stroke-linecap="round"></path>
                                <path d="M158,55 L153,57" id="Stroke-67" stroke="#CBCBCB" stroke-width="2" stroke-linecap="round"></path>
                                <path d="M132,75 L127,76" id="Stroke-69" stroke="#CBCBCB" stroke-width="2" stroke-linecap="round"></path>
                                <polyline id="Stroke-71" stroke="#CBCBCB" stroke-width="2" stroke-linecap="round" stroke-linejoin="round" points="57 64.2457965 57.2980423 43 88 52.4423387 87.8509788 70"></polyline>
                                <path d="M55,43 L46,48" id="Stroke-73" stroke="#CBCBCB" stroke-width="2" stroke-linecap="round"></path>
                                <polyline id="Stroke-75" stroke="#CBCBCB" stroke-width="2" stroke-linecap="round" stroke-linejoin="round" points="58 39.8390605 58.2980423 18 89 31.9527941 88.8509788 50"></polyline>
                                <path d="M56,18 L46,25" id="Stroke-77" stroke="#CBCBCB" stroke-width="2" stroke-linecap="round"></path>
                                <path d="M240.681646,98 C240.681646,98 238.771892,100.043861 236.633613,101.001489 C234.090459,102.140762 231.247504,102.280992 231.247504,103.097664 C231.247504,103.947759 232.897872,107.887986 232.910364,108.212039 C233.064673,112.256893 232.02713,112.091234 231.247504,114.529626 C229.422252,120.245607 237.941564,125.660059 248.589601,122.050424 C252.91539,120.583466 263.801504,120.846486 263.801504,120.846486 C263.801504,120.846486 263.953608,121.297691 263.649399,124.607249 C263.43998,126.888701 264.739848,128.995047 265.170443,129.420821 C268.213264,132.42885 269.581468,130.774434 270.950407,147.771249 C271.434643,153.776408 268.213264,158 268.213264,158" id="Stroke-79" stroke="#F56100" stroke-width="3" stroke-linecap="round" stroke-linejoin="round"></path>
                                <path d="M236.458083,30 C236.458083,30 232.011557,35.088397 232.011557,43.4688186 C232.011557,49.1557655 231.704951,56.4887247 232.011557,57.6858245 C232.318163,58.8829243 234.618448,62.6238612 234.004496,63.5224089 C231.767902,66.797807 225.934984,74.2898012 223.272549,78.1883273 C220.20649,82.6774515 220.082811,85.8574286 223.885761,87.1672987 C229.098801,88.9629484 231.551648,88.6636734 231.551648,88.6636734 C231.551648,88.6636734 231.290219,90.1513735 230.938437,92.5549707 C230.631831,94.6498953 230.677007,94.2226695 230.660714,94.7229068 C230.636274,95.5036241 237.200159,94.3882105 238,94.3730298" id="Stroke-81" stroke="#F56100" stroke-width="3" stroke-linecap="round" stroke-linejoin="round"></path>
                                <path d="M316,108 C316.064718,107.348068 317.807837,103.130279 319.900861,98.7665768 C322.419174,93.5173405 325.25112,88.6720575 326,88" id="Stroke-83" stroke="#F56100" stroke-width="3" stroke-linecap="round" stroke-linejoin="round"></path>
                                <path d="M318,134 C318,134 316,123.85079 316,114" id="Stroke-85" stroke="#F56100" stroke-width="3" stroke-linecap="round" stroke-linejoin="round"></path>
                                <path d="M342.433605,155.906825 C342.433605,155.906825 344.540246,154.697414 340.627913,149.85904 C336.714853,145.021396 337.918648,143.206549 337.31675,140.183022 C336.714853,137.159495 339.122443,132.321121 332.802519,132.018768 C326.481869,131.716415 320.76239,135.042295 304.209483,143.811255 C287.655849,152.580945 269.295797,159.233435 261.771352,161.047552 C254.247634,162.861668 252.140266,163.466374 250.635522,166.188278 C249.130051,168.909453 235,192 235,192" id="Stroke-87" stroke="#F56100" stroke-width="3" stroke-linecap="round" stroke-linejoin="round"></path>
                                <path d="M259,166.896689 C259,166.896689 266.395779,164.662598 273.049351,164.972245 C279.704383,165.281891 292.815747,171.064948 294.629627,169.826363 C296.444968,168.58703 299.469318,162.703749 308.240666,159.606537 C311.777841,158.35748 327.296266,154.341801 331.531088,153.412862 C335.765179,152.483923 340,153.412862 340,153.412862" id="Stroke-89" stroke="#F56100" stroke-width="3" stroke-linecap="round" stroke-linejoin="round"></path>
                                <path d="M320,150 C320,150 310.234774,152.666428 302.484229,153.555237 C294.732244,154.444047 284,158 284,158" id="Stroke-91" stroke="#F56100" stroke-width="3" stroke-linecap="round" stroke-linejoin="round"></path>
                                <path d="M339.648473,158 C339.648473,158 339.041631,159.200539 340.862158,163.40315 C342.683418,167.605037 352.090209,185.914707 353.607315,189.517048 C355.124421,193.118665 358.766208,210.228521 357.855944,217.43248 C356.945681,224.636439 348.145,253.151415 340.862158,263.657581 C333.580049,274.163022 329.634841,279.866307 322.958841,299.677376 C316.282842,319.487719 309,342 309,342" id="Stroke-93" stroke="#F56100" stroke-width="3" stroke-linecap="round" stroke-linejoin="round"></path>
                                <path d="M349.69566,228 C349.69566,228 359.279999,212.342997 345.802609,195.782789 C332.32522,179.222581 330.827893,181.330058 322.74088,178.921512 C314.655314,176.512239 314.355849,176.211171 309.563679,178.921512 C304.772233,181.631127 288,194.27672 288,194.27672" id="Stroke-95" stroke="#F56100" stroke-width="3" stroke-linecap="round" stroke-linejoin="round"></path>
                                <path d="M328,249 C328,249 335.517505,234.665722 333.610285,218.481669 C331.701528,202.296141 333.309185,196.785907 338.57766,198.217491 C343.426747,199.53623 346.966972,209.625172 343.786991,217.564894" id="Stroke-97" stroke="#F56100" stroke-width="3" stroke-linecap="round" stroke-linejoin="round"></path>
                                <path d="M324,238 C324,238 324,256.212254 322.19214,260.093968 C320.384279,263.97496 316,267 316,267" id="Stroke-99" stroke="#F56100" stroke-width="3" stroke-linecap="round" stroke-linejoin="round"></path>
                                <path d="M148,285.201791 C151.727721,286.534088 152.620243,286.737381 155.244535,287.607185 C158.870816,288.810245 162.798497,290.613745 162.798497,290.613745 C162.798497,290.613745 167.330436,292.116663 171.258846,294.220747 C175.186527,296.325557 181.229842,296.325557 184.251865,297.527891 C187.273158,298.730225 189.086663,299.030808 189.086663,299.030808 C189.086663,299.030808 196.337766,298.129058 198.453401,299.631975 C200.568306,301.134892 201.776823,302.337952 201.776823,302.337952 C201.776823,302.337952 206.610891,301.435475 208.122267,302.638535 C209.632914,303.840143 208.424397,301.736059 212.654936,300.834309 C216.884746,299.932558 217.186876,299.631975 218.999651,301.435475 C220.812427,303.239702 223.53232,302.638535 223.53232,302.638535 C223.53232,302.638535 222.323803,303.840143 221.417415,300.533725 C220.510298,297.226581 222.323803,292.71783 223.230191,291.816079 C224.136579,290.914329 226.252214,282.497266 227.158601,280.392456 C228.064989,278.288372 225.950084,275.583121 228.970647,274.380787 C231.99267,273.177728 231.388411,273.177728 232.899058,271.374227 C234.409704,269.570726 236.22321,265.061249 238.338115,262.055414 C240.453749,259.048854 247.704852,256.043019 248.006981,253.337768 C248.309111,250.632517 249.517628,243.117205 251.331133,243.417789 C253.143909,243.718372 255.863072,243.417789 256.165202,241.312978 C256.467331,239.208894 250.726875,240.411228 261,235" id="Stroke-101" stroke="#F56100" stroke-width="3" stroke-linecap="round" stroke-linejoin="round"></path>
                                <path d="M316,265 C316,265 313.895618,276.175012 313.29364,278.288928 C312.692388,280.402844 309.986754,283.72544 306.078615,287.953271 C302.169751,292.181832 293.150244,307.584675 290.143984,313.323176 C287.136998,319.060946 284.430637,326.913362 280.523225,329.933971 C276.614361,332.95385 270.600388,348.054706 260.679004,352.283266 C250.757619,356.511827 240.535608,366.478158 208.364994,357.115803 C176.195105,347.752718 150.639716,338.994338 147.934081,337.182411 C145.227721,335.370483 134.103832,326.007398 128.391212,325.101435 C122.678591,324.195471 118.169201,324.195471 113.358459,323.591495 C109.956447,323.164043 98.9269576,321.477579 97.7244535,319.96691 C95.2824118,316.901076 99.5282096,306.9807 102.835096,294.597735 C105.81231,283.4519 105.24083,281.006819 110.652098,274.967061 C116.064093,268.926573 118.469827,271.644464 123.279843,274.060367 C123.983483,274.414146 124.79677,274.813149 125.685578,275.240601" id="Stroke-103" stroke="#F56100" stroke-width="3" stroke-linecap="round" stroke-linejoin="round"></path>
                                <path d="M328.456809,84 C328.456809,84 333.520684,78.2789545 335.0835,71.3632692 C336.291991,66.0237237 339,61.1339846 339,53.6122595 C339,45.7664411 335.342515,29.2791044 326.348317,19.0120332 C315.804398,6.97770897 310.817646,5.5360026 299.236216,3.36690304 C289.596665,1.56186341 277.898096,6.97189564 266.09985,7.57938885 C244.184041,8.70790195 245.91638,3.0660631 245.91638,3.0660631 C245.91638,3.0660631 235.674403,7.27854891 233.565183,12.6943945 C231.902689,16.9650136 233.26397,29.8437243 246.518807,37.3654495" id="Stroke-105" stroke="#F56100" stroke-width="3" stroke-linecap="round" stroke-linejoin="round"></path>
                                <path d="M249,39 C249,39 258.108692,40.555087 260.459063,46.7610158 C263.173608,53.9250858 264.379748,58.9998457 272.82346,58.4028999 C273.351511,58.3654106 274.555466,62.1813936 274.029601,67.954753 C273.709857,71.4686583 271.014249,77.8050789 271.014249,77.8050789 C271.014249,77.8050789 276.141075,78.4020247 280.363295,77.5066061 C282.899395,76.9687781 288,58.1094737 288,58.1094737" id="Stroke-107" stroke="#F56100" stroke-width="3" stroke-linecap="round" stroke-linejoin="round"></path>
                                <path d="M289.81091,53.8071448 C290.932386,52.3090904 292.410558,50.8103112 294.35576,50.2921163 C299.987322,48.7918877 308.122556,52.9925279 306.871098,64.6957609 C305.872803,74.0268932 300.289606,75.670622 295.606462,77.8992226 C294.416972,78.4652509 294.042895,81.1997256 290.600629,81.1997256 C289.165533,81.1997256 288.409821,80.2995884 288.409821,80.2995884 C288.409821,80.2995884 287.759909,82.421651 288.096957,83" id="Stroke-109" stroke="#F56100" stroke-width="3" stroke-linecap="round" stroke-linejoin="round"></path>
                                <path d="M292.242855,64.5606902 C292.032124,63.3887231 292.154409,59.4268777 295.124649,59.0427693 C298.094888,58.6579334 299.906873,60.9633113 300.45216,62.2211208 C301.372765,64.3453567 301.590418,67.9871117 297.354251,70.9923235 C292.85813,74.1823147 291,75 291,75" id="Stroke-111" stroke="#F56100" stroke-width="3" stroke-linecap="round" stroke-linejoin="round"></path>
                                <path d="M266,138 C266,138 264.79464,139.795105 257.259686,140.394196 C251.863226,140.822015 241.055021,141.097351 235.355765,141.219482 C233.174326,141.265732 231.309512,142.784778 230.839305,144.900747 C229.569165,150.617044 230.791993,161.461385 230.136907,164.929464 C229.232887,169.71641 222,176 222,176" id="Stroke-113" stroke="#F56100" stroke-width="3" stroke-linecap="round" stroke-linejoin="round"></path>
                                <path d="M267,148 C267,148 262.467369,149.485006 257.934737,153.049739 C253.402836,156.613755 244.6397,162.554498 238.597164,166.712516 C232.553899,170.871252 225,178 225,178" id="Stroke-115" stroke="#F56100" stroke-width="3" stroke-linecap="round" stroke-linejoin="round"></path>
                                <path d="M151,99 C137.076802,102.299356 139.453562,105.360276 135.510152,110.392324 C129.814759,117.66027 128.32123,126.303984 128.016443,134.315766 C127.716723,142.189314 131.6138,154 131.6138,154" id="Stroke-117" stroke="#F56100" stroke-width="3" stroke-linecap="round" stroke-linejoin="round"></path>
                                <path d="M173,183.384542 C173,183.384542 191.760847,189.409176 199.805372,187.692101 C207.849168,185.975026 213.693045,178.125955 215.512839,175.18074 C217.811067,171.460774 219.733538,165.869943 218.724969,160.688976 C217.340644,153.575483 214.17075,146.905224 214.458393,142.611449 C214.604763,140.417771 215.128345,132.609324 213.814656,126" id="Stroke-119" stroke="#F56100" stroke-width="3" stroke-linecap="round" stroke-linejoin="round"></path>
                                <path d="M191,196.197945 C191,196.197945 169.490079,192.892628 161.612279,196.197945 C153.735942,199.503263 135.860521,211.52405 132.831161,215.731543 C129.801069,219.938311 117.682896,228.653055 117.37996,235.264415 C117.077024,241.875776 116.774088,248.487136 113.44106,250.891003 C110.108764,253.29487 100.536278,215.198802 97.8091224,209.488892 C95.0826981,203.779707 94.7490295,191.089002 101.71729,187.483201 C108.68555,183.876675 114.70183,181.318211 125.257029,180.270874 C146.464746,178.16749 158.279982,188.985618 166.459987,189.586585" id="Stroke-121" stroke="#F56100" stroke-width="3" stroke-linecap="round" stroke-linejoin="round"></path>
                                <path d="M146.285854,157.995003 C146.285854,157.995003 144.352777,151.924246 138.112683,153.167979 C132.058293,154.374553 132.663659,161.313082 133.571707,163.425315 C133.571707,163.425315 135.690488,169.156541 139.626098,172.173704 C143.560976,175.190139 146.89122,174.586852 149.01,174.285209 C151.129512,173.983565 152.642927,172.475348 152.642927,172.475348 L159,177" id="Stroke-123" stroke="#F56100" stroke-width="3" stroke-linecap="round" stroke-linejoin="round"></path>
                                <path d="M255,56 C255,56 247.08276,52.4791667 241.383448,53.0659722 C237.55408,53.4600107 236,55.4131944 236,55.4131944" id="Stroke-125" stroke="#F56100" stroke-width="3" stroke-linecap="round" stroke-linejoin="round"></path>
                                <path d="M238.000003,62 C238.000003,62 237.984787,60.4205 240.850497,60.082799 C244.59947,59.640368 247,61.115138 247,61.115138" id="Stroke-127" stroke="#F56100" stroke-width="3" stroke-linecap="round" stroke-linejoin="round"></path>
                                <path d="M139.69983,161 C139.69983,161 137.62714,164.751965 140.615795,168.156757 C141.602754,169.282347 142.92693,169.719038 144.104489,169.965018 C145.578368,170.272492 146.58539,168.483692 145.619266,167.319181 C145.410145,167.066196 145.254269,166.869257 145.192536,166.771955 C143.590561,164.231983 145.879317,163.770383 145.879317,163.770383" id="Stroke-129" stroke="#F56100" stroke-width="3" stroke-linecap="round" stroke-linejoin="round"></path>
                                <path d="M125,235.736689 C125,235.736689 125.599395,237.248993 132.493161,238.762027 C139.386927,240.2736 147.779181,248.4415 149.577366,252.978411 C151.376275,257.516052 160.667621,270.220863 166.362597,273.850391 C172.05685,277.48065 179.250313,282.622482 190.040147,280.505258 C200.830705,278.388033 203.765424,279.557693 208.623563,273.850391 C213.481703,268.142359 228.40577,238.459566 229.60456,233.013813 C230.80335,227.56952 234.999838,214.562248 235.898931,213.049945 C236.798023,211.537641 231.402744,207 231.402744,207" id="Stroke-131" stroke="#F56100" stroke-width="3" stroke-linecap="round" stroke-linejoin="round"></path>
                                <path d="M197,215 C197,215 201.132228,205.577951 201.427337,202.751564 C201.722445,199.924418 197.885325,198.668246 201.427337,198.04016 C204.968636,197.412074 218.545041,204.321779 221.201016,206.834123 C223.857703,209.346467 229,210.777108 229,210.777108" id="Stroke-133" stroke="#F56100" stroke-width="3" stroke-linecap="round" stroke-linejoin="round"></path>
                                <path d="M195,217 C195,217 192.599533,218.166549 190.799726,220.20801 C189.000644,222.250176 188.700676,228.37456 188.700676,228.37456 C188.700676,228.37456 183.600499,229.541813 182.699871,228.37456 C181.799968,227.20801 174.899984,223.125088 168,238" id="Stroke-135" stroke="#F56100" stroke-width="3" stroke-linecap="round" stroke-linejoin="round"></path>
                                <path d="M194,206.771406 C194,206.771406 190.380571,199.434595 175.000364,202.956633 C159.619429,206.477962 156,210 156,210" id="Stroke-137" stroke="#F56100" stroke-width="3" stroke-linecap="round" stroke-linejoin="round"></path>
                                <path d="M227.842932,208 C228.663784,204.273112 226,203 226,203" id="Stroke-139" stroke="#F56100" stroke-width="3" stroke-linecap="round" stroke-linejoin="round"></path>
                                <path d="M220,195.298065 C220,195.298065 225.294462,191.707338 228.409161,193.502702 C231.522356,195.298065 232.768687,199.487246 231.522356,200.984105 C230.276777,202.480241 228.097767,201.881787 228.097767,201.881787 C228.097767,201.881787 223.8112,200.659581 226.678439,198.580891" id="Stroke-141" stroke="#F56100" stroke-width="3" stroke-linecap="round" stroke-linejoin="round"></path>
                                <path d="M229,192 L229,192 C229,191.245858 228.785451,190.500018 228.348131,189.863495 C227.957159,189.294775 227.090742,189.173697 226.213859,188.848516 C224.666417,188.275645 222.809488,187.129903 220.023347,189.134952 C217.237953,191.140693 216,192 216,192" id="Stroke-143" stroke="#F56100" stroke-width="3" stroke-linecap="round" stroke-linejoin="round"></path>
                                <path d="M226,186.406193 C225.125382,183.341753 219.86315,184.077408 219.86315,184.077408 C219.86315,184.077408 217.013761,184.357593 215.431957,185.198148 C213.848624,186.038704 211,188 211,188" id="Stroke-145" stroke="#F56100" stroke-width="3" stroke-linecap="round" stroke-linejoin="round"></path>
                                <path d="M205,198 C205,198 205.619119,194.591075 205.928678,191.492733 C206.109628,189.68387 206.722765,187.541224 209.02502,185.914968 C210.667031,184.755709 213.985448,183.898052 214.907397,183.436294 C216.145634,182.816626 217.149833,182.944601 218,183.280629" id="Stroke-147" stroke="#F56100" stroke-width="3" stroke-linecap="round" stroke-linejoin="round"></path>
                                <path d="M198.647236,140 C198.647236,140 196,144.779492 196,146.571532 C196,149.25959 198.647236,152.545717 200.632064,154.935102 C201.474257,155.948716 203.94011,158.221229 202.617691,160.311941 C201.294472,162.402654 199.63965,163 199.63965,163" id="Stroke-149" stroke="#F56100" stroke-width="3" stroke-linecap="round" stroke-linejoin="round"></path>
                                <path d="M201,146 C201,146 202.688141,144.305303 204.937775,144.063563 C208.333089,143.697596 210,145.031362 210,145.031362" id="Stroke-151" stroke="#F56100" stroke-width="3" stroke-linecap="round" stroke-linejoin="round"></path>
                                <path d="M184,147.190083 C184,147.190083 182.15396,145.570248 177.845792,146.110193 C175.390351,146.417988 172,148 172,148" id="Stroke-153" stroke="#F56100" stroke-width="3" stroke-linecap="round" stroke-linejoin="round"></path>
                                <path d="M203,172 C203,172 198.878011,172.675 196.341874,172.9 C193.804971,173.125 190,172.9 190,172.9" id="Stroke-155" stroke="#F56100" stroke-width="3" stroke-linecap="round" stroke-linejoin="round"></path>
                                <path d="M45,227 C45,227 49.612757,224.728202 56.7128773,223.983566 C66.7747663,222.927814 76.8359299,218.553256 81.9419523,212.218015 C85.9461068,207.249642 84.4946008,200 84.4946008,200 L89,211.76555" id="Stroke-157" stroke="#F56100" stroke-width="3" stroke-linecap="round" stroke-linejoin="round"></path>
                                <path d="M88.9060418,313 C88.9060418,313 85.9072679,313 84.407881,304.180556 C84.2803969,303.43281 82.4869273,297.129849 82.3080149,293.231724 C82.0914368,288.513869 81.7394068,288.393407 82.3080149,285.932747 C83.3554128,281.400727 83.1214505,277.448247 84.407881,273.160089 C86.233946,267.07161 94.6203721,264.24883 96.4037009,262.516085 C103.601483,255.521202 109,254 109,254" id="Stroke-159" stroke="#F56100" stroke-width="3" stroke-linecap="round" stroke-linejoin="round"></path>
                                <path d="M114.063934,257 C113.532903,257.316063 116.468968,270.419686 117,272" id="Stroke-161" stroke="#F56100" stroke-width="3" stroke-linecap="round" stroke-linejoin="round"></path>
                                <path d="M72,256 C72.3510568,256.860129 72.661157,257.704331 72.9149419,258.510159 C73.8218387,261.382325 77.6015505,265.402054 79.5769765,267.503145 C80.9007533,268.911353 82,272 82,272" id="Stroke-163" stroke="#F56100" stroke-width="3" stroke-linecap="round" stroke-linejoin="round"></path>
                                <path d="M45,227 C47.9714938,232.479045 53.1862561,235.321472 58,238" id="Stroke-165" stroke="#F56100" stroke-width="3" stroke-linecap="round" stroke-linejoin="round"></path>
                                <path d="M208,124.872586 C208,124.872586 201.671861,131.002424 183.89062,126.098405 C178.154971,124.516535 172.136907,121.194387 164,112" id="Stroke-167" stroke="#F56100" stroke-width="3" stroke-linecap="round" stroke-linejoin="round"></path>
                                <path d="M163,113 C162.099272,119.774297 151.75613,126.309868 145.708488,126.874331 C139.102424,127.490109 137,125.642776 137,125.642776" id="Stroke-169" stroke="#F56100" stroke-width="3" stroke-linecap="round" stroke-linejoin="round"></path>
                                <path d="M261.737803,319 C261.737803,319 264.097103,305.799007 254.661326,293.798696 C245.540313,282.197648 238.444609,276.397848 239.034256,282.397641 C239.623903,288.398158 251.123444,297.098582 251.418268,303.999069" id="Stroke-171" stroke="#F56100" stroke-width="3" stroke-linecap="round" stroke-linejoin="round"></path>
                                <path d="M163,115 C163,115 162.802861,118.784469 161.525902,121.843717 C158.681464,128.654873 153,131 153,131" id="Stroke-181" stroke="#F56100" stroke-width="3" stroke-linecap="round" stroke-linejoin="round"></path>
                                <path d="M312,166 L312,173" id="Stroke-183" stroke="#F56100" stroke-width="3" stroke-linecap="round" stroke-linejoin="round"></path>
                                <path d="M264,232 C264,232 274.266383,237.14319 286,241" id="Stroke-185" stroke="#F56100" stroke-width="3" stroke-linecap="round" stroke-linejoin="round"></path>
                                <path d="M269,228.185609 C269,228.185609 278.301965,226.381542 284.329318,227.224209 C290.356672,228.067555 300,232 300,232" id="Stroke-187" stroke="#F56100" stroke-width="3" stroke-linecap="round" stroke-linejoin="round"></path>
                                <path d="M267,223 C267,223 271.755537,213.650782 280,204" id="Stroke-189" stroke="#F56100" stroke-width="3" stroke-linecap="round" stroke-linejoin="round"></path>
                                <path d="M219,269 L221,289" id="Stroke-191" stroke="#F56100" stroke-width="3" stroke-linecap="round" stroke-linejoin="round"></path>
                                <path d="M150,177 L151,181" id="Stroke-193" stroke="#F56100" stroke-width="3" stroke-linecap="round" stroke-linejoin="round"></path>
                                <path d="M202,179.333333 C202,179.333333 200.518784,178 198.444365,178 C196.370662,178 194,180 194,180" id="Stroke-195" stroke="#F56100" stroke-width="3" stroke-linecap="round" stroke-linejoin="round"></path>
                                <path d="M139.974623,129 C139.974623,129 140.28549,135.461561 138.731155,140.691747 C137.176069,145.922677 135,149 135,149" id="Stroke-197" stroke="#F56100" stroke-width="3" stroke-linecap="round" stroke-linejoin="round"></path>
                                <path d="M300.099237,80 C300.099237,80 296.682745,88.700943 301.896096,92.2132634 C311.18059,98.4681004 315,108 315,108" id="Stroke-199" stroke="#F56100" stroke-width="3" stroke-linecap="round" stroke-linejoin="round"></path>
                                <path d="M246,93 C246,93 247.333065,93.7497736 248,95" id="Stroke-201" stroke="#F56100" stroke-width="3" stroke-linecap="round" stroke-linejoin="round"></path>
                                <path d="M215,122 C213.660948,115.392022 210.430819,108.581788 204.596485,103.756548 C192.663258,93.8871982 186.103234,90.5384239 171.545111,93.5881489 C162.977989,95.3817224 161.840681,92.1217961 159,91" id="Stroke-203" stroke="#F56100" stroke-width="3" stroke-linecap="round" stroke-linejoin="round"></path>
                                <path d="M159,95 C159,95 155.181469,93.755486 152,94.0431626" id="Stroke-205" stroke="#F56100" stroke-width="3" stroke-linecap="round" stroke-linejoin="round"></path>
                                <path d="M228,83 L231,84" id="Stroke-207" stroke="#F56100" stroke-width="3" stroke-linecap="round" stroke-linejoin="round"></path>
                                <path d="M171,142 C171,142 174.461481,139.338442 178.823814,139.047386 C183.184652,138.75633 186,139.901194 186,139.901194" id="Stroke-209" stroke="#F56100" stroke-width="3" stroke-linecap="round" stroke-linejoin="round"></path>
                                <path d="M202,136.545812 C202.656569,136.303812 203.478214,136.112667 204.50527,136.032 C207.597643,135.79 211,137 211,137" id="Stroke-211" stroke="#F56100" stroke-width="3" stroke-linecap="round" stroke-linejoin="round"></path>
                                <path d="M175,224 C175,224 166.297489,227.968907 162.87894,234.380957 C159.459641,240.793006 157.284201,239.877104 158.216532,235.602159" id="Stroke-213" stroke="#F56100" stroke-width="3" stroke-linecap="round" stroke-linejoin="round"></path>
                                <path d="M141.219282,280.924872 L140.820968,280.697789 L133.36487,277.456558 C131.800828,276.776768 130.018034,276.857087 128.527385,277.690943 C125.077229,279.620056 119.082566,284.016418 116.629265,292.186307 C113.458428,302.747508 112.401008,307.884264 112.061122,309.883474 C111.949965,310.539168 111.991293,311.212386 112.17798,311.850556 L114.56359,320 L123.154776,316.820833 C124.425248,316.350603 125.397163,315.284552 125.769113,313.95345 C126.986144,309.598707 129.833484,299.69028 131.67542,295.512239 C134.434404,289.251748 138.772394,285.419808 141.348966,283.565172 C142.269577,282.902177 142.202598,281.484914 141.219282,280.924872 Z" id="Stroke-215" stroke="#F56100" stroke-width="3" stroke-linecap="round" stroke-linejoin="round"></path>
                                <path d="M273,59 L280,60" id="Stroke-219" stroke="#F56100" stroke-width="3" stroke-linecap="round" stroke-linejoin="round"></path>
                                <path d="M92.323815,213.378877 L97.0632956,223.231029 C97.7803921,224.721351 98.0988609,226.377101 97.9732065,228.03138 C97.7269529,231.269356 98.7791277,238.617297 92.3801428,244.019805 C80.1216203,254.369711 68.402545,252.097834 67.4623037,250.986894 L60.3404452,242.574333 C59.5959069,241.859684 60.1613516,240.586257 61.1795853,240.691395 C65.1441973,241.103862 72.1071825,240.275987 82.064208,233.517705 C90.1992452,227.996089 91.2044801,218.771093 91.0679935,213.697234 C91.0484954,212.970822 92.0104012,212.726724 92.323815,213.378877 Z" id="Stroke-221" stroke="#F56100" stroke-width="3" stroke-linecap="round" stroke-linejoin="round"></path>
                                <path d="M46,219 C46,219 45.5422886,219.613788 45.3134328,220.53447 C45.0845771,221.455152 45,224 45,224" id="Stroke-223" stroke="#F56100" stroke-width="3" stroke-linecap="round" stroke-linejoin="round"></path>
                                <path d="M85,200 C85,200 84.3333333,198 81,198" id="Stroke-225" stroke="#F56100" stroke-width="3" stroke-linecap="round" stroke-linejoin="round"></path>
                                <path d="M81,258.6923 C81,258.6923 90.4405125,253.88387 88.8109377,257.119084 C87.1813629,260.353588 83.2695962,261.529771 84.2473411,263" id="Stroke-227" stroke="#F56100" stroke-width="3" stroke-linecap="round" stroke-linejoin="round"></path>
                                <path d="M81,203 C78.9058501,198.042754 75.4756266,182.404632 74.4953553,175.447843 C73.6043976,169.124278 63.6542809,164.643217 57.1939299,156.790505 C56.6435258,156.121819 55.6668851,155.932937 54.8027941,156.019779 C53.749184,156.126161 52.6890387,156.857807 52.1103156,159.165641 C51.6209061,161.117421 52.8473344,163.283412 54.0686798,165.021704 C57.4959987,169.901516 62.882408,173.317312 62.882408,173.317312 C62.882408,173.317312 61.6189472,174.31238 62.3929985,183.5647 C62.882408,189.420764 65.8195913,191.860308 65.8195913,191.860308" id="Stroke-229" stroke="#F56100" stroke-width="3" stroke-linecap="round" stroke-linejoin="round"></path>
                                <path d="M51,220 C51,220 48.682888,214.917604 45.6047282,214.076549 C42.5258457,213.236215 35.4487525,210.71305 31.5784671,208.474084 C28.6029368,206.75158 25.7314814,204.533532 23.4837526,201.692266 C22.284723,200.17678 16.0633567,190.405106 20.6852942,187.340953 C21.6761739,186.683834 22.809434,185.393399 25.3245774,183.869978 C26.3407532,183.253974 29.693555,180.105427 30.7444224,181.247271 C31.7201246,182.307607 32.4486489,184.376342 29.6689818,187.314986 C29.1052427,187.911515 26.8857009,189.597952 26.6775511,190.447663 C26.4303732,191.456064 28.1736278,192.747942 28.8790244,194.153066" id="Stroke-231" stroke="#F56100" stroke-width="3" stroke-linecap="round" stroke-linejoin="round"></path>
                                <path d="M17.9708453,192 C17.9708453,192 14.4490592,188.32674 14.234433,186.983942 C14.0205445,185.641906 13.5190126,184.234331 15.2588856,182.536401 C17.1728197,180.667001 18.1213049,179.222845 19.074953,178.024844 C23.5208853,172.441793 24.7326748,172.511143 25.964378,173.541485 C26.6510341,174.116099 27.6924503,176.004551 26.3464273,178.440182" id="Stroke-233" stroke="#F56100" stroke-width="3" stroke-linecap="round" stroke-linejoin="round"></path>
                                <path d="M13.6184886,180 C13.6184886,180 12.493074,177.085422 12.2110152,175.627767 C11.9296616,174.170843 11.9296616,171.255534 12.2110152,170.38138 C12.493074,169.506495 12.0044072,169.320272 15.0259619,166.884032 C16.0188089,166.082906 18.8478585,163.868674 19.5290305,165.717762 C19.7532673,166.326822 20.9357987,168.340956 18.4029108,171.255534 C16.5490794,173.389435 16.7147889,173.879458 16.7147889,173.879458" id="Stroke-235" stroke="#F56100" stroke-width="3" stroke-linecap="round" stroke-linejoin="round"></path>
                                <path d="M12,165 C12,165 8.36580948,161.481351 6.28184144,159.247115 C4.34177913,157.167416 4.61893088,153.538695 7.01126833,153" id="Stroke-237" stroke="#F56100" stroke-width="3" stroke-linecap="round" stroke-linejoin="round"></path>
                                <path d="M42,195.540792 C42,195.540792 47.7138581,191.878818 55.1428757,195.845829 C61.5926203,199.28992 64,205 64,205" id="Stroke-239" stroke="#F56100" stroke-width="3" stroke-linecap="round" stroke-linejoin="round"></path>
                                <path d="M16.3250211,163 L10.7945303,154.323623 C9.29741364,151.974681 9.97785532,148.851739 12.3155602,147.347426 L31.8135838,134.798135 C34.150564,133.293822 37.2585665,133.978263 38.7556832,136.327205 L50,155.623332" id="Stroke-241" stroke="#F56100" stroke-width="3" stroke-linecap="round" stroke-linejoin="round"></path>
                                <path d="M31,188.075563 L32.2615934,189.976211 C33.6165083,192.016689 36.2372265,192.604861 38.262933,191.323459 L53,182" id="Stroke-243" stroke="#F56100" stroke-width="3" stroke-linecap="round" stroke-linejoin="round"></path>
                                <path d="M28,138 L53,180" id="Stroke-245" stroke="#F56100" stroke-width="3" stroke-linecap="round" stroke-linejoin="round"></path>
                                <path d="M22,140 L47,182" id="Stroke-247" stroke="#F56100" stroke-width="3" stroke-linecap="round" stroke-linejoin="round"></path>
                            </g>
                        </g>
                    </g>
                </g>
            </g>
            <path d="M376.368884,0 C383.143528,0 386.583906,0 390.238168,1.5206778 C394.236745,3.43179401 397.386418,7.56804633 398.842154,12.8188624 C400,17.6171183 400,22.1343747 400,31.1688148 L400,78.9692175 C400,87.8656979 400,92.3828817 398.842154,97.1811376 C397.386418,102.431954 394.236745,106.568279 390.238168,108.479395 C386.583906,110 383.143528,110 376.263877,110 L121.631116,110 C114.855919,110 111.416094,110 107.761832,108.479395 C103.763255,106.568279 100.613029,102.431954 99.1578462,97.1811376 C98,92.3828817 98,87.8656979 98,78.8312578 L98,31.0308551 C98,22.1343747 98,17.6171183 99.1578462,12.8188624 C100.613029,7.56804633 103.763255,3.43179401 107.761832,1.5206778 C111.416094,0 114.855919,0 121.736123,0 L376.368884,0 Z" id="Fill-268-Copy-2" fill="#9C2C64"></path>
            <text id="“Now-that-is-brillia" font-family="INGMe, ING Me" font-size="24" font-weight="normal" fill="#FFFFFF">
                <tspan x="133" y="64">“Now that is brilliant.”</tspan>
            </text>
            <path d="M244.344498,83.4373712 L254.693718,99.3269321 C256.225988,101.383397 257.004322,102.427601 257.568435,103.88829 C258.143855,105.543844 258.143855,107.456156 257.568435,109.11171 C257.004322,110.572399 256.225988,111.616603 254.669916,113.705013 L244.344498,127.562629 C242.812228,129.619173 242.03449,130.663378 240.946132,131.421035 C239.71258,132.192988 238.28742,132.192988 237.053868,131.421035 C235.96551,130.663378 235.187772,129.619173 233.631699,127.530764 L223.306282,113.673068 C221.774012,111.616603 220.996273,110.572399 220.431565,109.11171 C219.856145,107.456156 219.856145,105.543844 220.431565,103.88829 C220.996273,102.427601 221.774012,101.383397 223.330084,99.294987 L233.655502,85.4373712 C235.187772,83.3808268 235.96551,82.3366221 237.053868,81.5789646 C238.28742,80.8070118 239.71258,80.8070118 240.946132,81.5789646 C242.03449,82.3366221 242.812228,83.3808268 244.368301,85.4692364 L244.344498,83.4373712 Z" id="Fill-270-Copy-2" fill="#9C2C64"></path>
        </g>
    </g>
</svg>