<?xml version="1.0" encoding="utf-8"?>
<!-- Generator: Adobe Illustrator 22.1.0, SVG Export Plug-In . SVG Version: 6.00 Build 0)  -->
<svg version="1.1" id="Layer_1" xmlns="http://www.w3.org/2000/svg" xmlns:xlink="http://www.w3.org/1999/xlink" x="0px" y="0px"
	 viewBox="0 0 363.3 367.3" style="enable-background:new 0 0 363.3 367.3;" xml:space="preserve">
<style type="text/css">
	.st0{fill:#E6E6E6;}
	.st1{fill:none;stroke:#CBCBCB;stroke-width:2;stroke-linecap:round;}
	.st2{fill:none;stroke:#CBCBCB;stroke-width:2;stroke-linecap:round;stroke-linejoin:round;}
	.st3{fill:none;stroke:#F56100;stroke-width:3;stroke-linecap:round;stroke-linejoin:round;}
	.st4{fill:none;}
</style>
<g id="Group" transform="translate(40.000000, 20.000000)">
	<g>
		<path id="Fill-1" class="st0" d="M105.3,266.8c0,0-4.7,2.4-9.1,10.7c-4.4,8.4-6.8,20.9-8.5,22.1c-1.8,1.2-10.3,3.3-10.3,3.3
			l1.5-2.4c0,0,6.9-0.6,8.2-2.7c1.3-2.1,6.2-18.5,8-21.8c1.8-3.3,4.7-6.3,4.7-6.3l4.4-3.9L105.3,266.8z"/>
		<path id="Fill-3" class="st0" d="M197.3,13.1c0,0,2.7,8.2,6.6,10c3.9,1.8,9,3,12.5,6.4c3.6,3.3,4.4,9.4,7,11.7
			c6,5.5,12.2,1.2,11.9,9.1c-0.2,5.5-3.9,10.9-3.6,10.6c0.3-0.3,3.5-8.9,3.3-12.9c-0.3-4.1,0.3-6.2-1.5-7.1c0,0-7.5,3.3-10.4-7.1
			c-3.5-12.6-15-11.9-20.2-16.5c-5.2-4.6-5.5-4.3-5.5-4.3L197.3,13.1z"/>
		<path id="Fill-5" class="st0" d="M287.3,67.7c0,0-4.8,8.1-8.7,9.6c-3.9,1.5-8.7-3.3-12.6-6c-3.9-2.7-4.2-8.4-4.2-8.4
			s-7.5,6.3,10.9,20.3c1.9,1.4,4.3,7.7,4.3,7.7L287.3,67.7z"/>
		<path id="Fill-7" class="st0" d="M8.3,199.6c-0.2-0.2,0.1-0.6,0.3-0.4c2.2,1.4,6.2,3.1,12,2.3c9.3-1.3,19.7-7.5,23-9.5
			c0.3-0.2,0.7,0.2,0.5,0.5c-1.1,2.2-4.7,7.2-14.7,11.2c-6.4,2.6-12.7,3.2-15.1,3.2c-0.4,0-2.3-0.5-2.5-0.9
			C11.3,204.9,10.8,202.6,8.3,199.6"/>
		<path id="Fill-9" class="st0" d="M195.8,197.9l2.4,5.3c0,0-5.5,16.9-7,20.5c-1,2.4-5.1,9.7-7.7,14.3c-1.4,2.4-3.6,4.2-6.3,5
			C177.3,242.9,196.3,203.7,195.8,197.9"/>
		<path id="Fill-11" class="st0" d="M307.3,194.9c0,0-7.3-16.1-7.3,0c0,18.3-4.1,22.6-9.4,35.6c-5.3,13,7.2-14.4,5-28.7
			c-2.2-14.4,0.3-22.8,2.2-22.8C306.2,178.6,307.3,194.9,307.3,194.9"/>
		<path id="Fill-13" class="st0" d="M126.9,164.5l-14.4-8.6l-1.2,2.7l0.9,5.7c0.2,1.1,1.4,1.8,2.5,1.4c1.9-0.7,5.5-1.2,11.7,0.2
			C127.2,166,127.6,164.9,126.9,164.5"/>
		<path id="Fill-15" class="st0" d="M260.3,59.1c0,0-3,2.7-3.5,4.9c-0.6,3.1-7.5,2.8-7.5,2.8l0.3-1.2l-0.3-2.8c0,0,2.1,1.9,3.7,1.1
			C254.6,63.2,258.7,57.6,260.3,59.1"/>
		<path id="Fill-17" class="st0" d="M86.6,220.7c0,0,4.5,2.4,10.3,5.2c5.8,2.7,10,12.8,12.4,16.8c2.4,4,7.6,11,13.6,14.6
			c4,2.4,9.8,6,15.6,8.7c4.5,2.1,16.3,0.1,19.4-0.9c14.5-4.9,12.1-7.9,12.1-7.9s-13.6,7.1-26.4,5.8c-11-1.1-23-11.4-27-19.2
			c-11.5-22.9-25.1-23.6-25.1-23.6S84.5,217,86.6,220.7"/>
		<path id="Fill-19" class="st0" d="M77.8,217.2c0.7,3.4-1.3,8.9-6-4.8c-1.6-4.7,0-18.1-7.8-27.4c-2.1-2.6-5.4-6.9-6.3-10.5
			c-0.9-3.6,1.7-2.4,1.7-2.4s-4.1,11-1,20s12.1,36,13.2,37.9c1.1,2,3.8,2.9,3.2,2.9C74.2,232.9,79.9,231.1,77.8,217.2"/>
		<path id="Fill-21" class="st0" d="M284.7,223.9c0,0,8,12-4.4,32.2c-1.3,2.2-5.6,10.5-6.5,14.8c-3.1,14.6-17.4,38.4-18.9,42.6
			c-1.5,4.2-3,21.9-13.7,21.3c-10.8-0.6-17.9,0-17.9,0c-0.2,1,6.4-7.3,13-16.1c3.2-4.2,7.8-7.4,9-11.7c6.9-25.1,19.9-29.4,24.1-39.6
			c1.9-4.6,3.2-11,6.5-16.5c1.8-3,5.8-4.7,7-8C285.7,234.3,284.7,223.9,284.7,223.9"/>
		<path id="Fill-23" class="st0" d="M211.6,100.4c-5.7,1.8-9.7,3.6-13,4.7c-1.1,0.4-0.1,1.6,4.5,1.4c3.2-0.1,7.1-1.9,11-2.4
			c4.5-0.5,10.4,0,11.6,0c1.2,0-1.8,7.2,2.7,10.2c3,2,3.4,7.8,4,12.3c0.8,6.1-0.2,12.2-2.4,14.7c-1.9,2.1,4.6-2.4,6.7-13.5
			c0.9-5-0.5-15.2-2.6-20.9c-2.1-5.7,2.7-10.2,4.9-12.3c2.1-2.1,12.8-15,9.8-14.7c-3,0.3-13.1,15.9-27.6,19.4
			C217.5,100.1,214.4,99.5,211.6,100.4"/>
		<path id="Fill-25" class="st0" d="M301.5,137.2c0.7,0.4,1.2,0.6,0.3,0.6c-2.7,0-15.6,4.2-17.5,4.7c0,0-10.3,1.8-15.4,3.8
			c-6,2.3-7.5,6.4-9.3,9c-1.3,1.9-2.5,1.8-4.8,1.5c-4.2-0.7-12.7-2.3-17.5-2.9c-2.7-0.3-17.4-3.6-15.9-3.6c1.5,0,10.1-3.1,10.1-3.1
			s3.3,0,7.1,0.9c3.8,0.9,14.9,4.4,14.9,4.4c-0.8,0.6,2.1,1.3,6-2.9c1.5-1.6,5.1-4.7,10.6-6.4C275.5,141.3,291.8,135.5,301.5,137.2"
			/>
		<path id="Fill-27" class="st0" d="M141.1,112.3c15.6,4.8,27.2-2.8,27.2-2.8s-12.2,4.5-24.8-0.7c-13-5.4-18.2-12.9-18.2-12.9
			S129.9,108.8,141.1,112.3"/>
		<path id="Stroke-29" class="st1" d="M-38.7,69.9l134,14"/>
		<path id="Stroke-31" class="st1" d="M-38.7,88.9l122,11"/>
		<path id="Stroke-33" class="st1" d="M-37.7,228.9l41-14"/>
		<path id="Stroke-35" class="st1" d="M-38.7,249.9c28.2-11.6,51-21,51-21"/>
		<polyline id="Stroke-41" class="st2" points="-13.7,68.1 -13.7,-17.1 5.3,-7 5.3,68.9 		"/>
		<polyline id="Stroke-43" class="st2" points="18.3,71.9 18.3,49.9 49.3,55.4 49.1,72.9 		"/>
		<polyline id="Stroke-45" class="st2" points="69.3,77.5 69.3,30.9 87.3,37.8 87.3,79.9 		"/>
		<polyline id="Stroke-47" class="st1" points="69.3,30.9 53.3,38 53.3,76.9 		"/>
		<path id="Stroke-49" class="st1" d="M113.3,65.9v7"/>
		<path id="Stroke-51" class="st1" d="M94.6,79.9c-0.8-1.9,0-19,0-19"/>
		<polygon id="Stroke-53" class="st2" points="114.3,62.9 113.9,35.3 94.6,26.9 94.3,58.1 		"/>
		<path id="Stroke-55" class="st1" d="M93.3,26.9l-10,7"/>
		<polyline id="Stroke-57" class="st2" points="119.3,68.9 119.6,37.9 137.3,45.6 136.9,66.2 		"/>
		<path id="Stroke-59" class="st1" d="M16.3,49.9l-9,3"/>
		<path id="Stroke-61" class="st1" d="M67.3,106.6c-3,0.3-38-2.7-38-2.7v36l38-1.2V106.6z"/>
		<polyline id="Stroke-63" class="st1" points="67.3,142.9 67.3,161.5 37.3,163.9 		"/>
		<path id="Stroke-65" class="st1" d="M27.3,103.9l-15,3"/>
		<path id="Stroke-67" class="st1" d="M119.3,37.9l-5,2"/>
		<path id="Stroke-69" class="st1" d="M93.3,57.9l-5,1"/>
		<polyline id="Stroke-71" class="st2" points="18.3,47.1 18.5,25.9 49.3,35.3 49.1,52.9 		"/>
		<path id="Stroke-73" class="st1" d="M16.3,25.9l-9,5"/>
		<polyline id="Stroke-75" class="st2" points="19.3,22.7 19.5,0.9 50.3,14.8 50.1,32.9 		"/>
		<path id="Stroke-77" class="st1" d="M17.3,0.9l-10,7"/>
		<path id="Stroke-79" class="st3" d="M201.9,80.9c0,0-1.9,2-4,3c-2.5,1.1-5.4,1.3-5.4,2.1c0,0.9,1.7,4.8,1.7,5.1
			c0.2,4-0.9,3.9-1.7,6.3c-1.8,5.7,6.7,11.1,17.3,7.5c4.3-1.5,15.2-1.2,15.2-1.2s0.2,0.5-0.2,3.8c-0.2,2.3,1.1,4.4,1.5,4.8
			c3,3,4.4,1.4,5.8,18.4c0.5,6-2.7,10.2-2.7,10.2"/>
		<path id="Stroke-81" class="st3" d="M197.7,12.9c0,0-4.4,5.1-4.4,13.5c0,5.7-0.3,13,0,14.2c0.3,1.2,2.6,4.9,2,5.8
			c-2.2,3.3-8.1,10.8-10.7,14.7c-3.1,4.5-3.2,7.7,0.6,9c5.2,1.8,7.7,1.5,7.7,1.5s-0.3,1.5-0.6,3.9c-0.3,2.1-0.3,1.7-0.3,2.2
			c0,0.8,6.5-0.3,7.3-0.3"/>
		<path id="Stroke-83" class="st3" d="M277.3,90.9c0.1-0.7,1.8-4.9,3.9-9.2c2.5-5.2,5.4-10.1,6.1-10.8"/>
		<path id="Stroke-85" class="st3" d="M279.3,116.9c0,0-2-10.1-2-20"/>
		<path id="Stroke-87" class="st3" d="M303.7,138.8c0,0,2.1-1.2-1.8-6c-3.9-4.8-2.7-6.7-3.3-9.7c-0.6-3,1.8-7.9-4.5-8.2
			c-6.3-0.3-12,3-28.6,11.8c-16.6,8.8-34.9,15.4-42.4,17.2c-7.5,1.8-9.6,2.4-11.1,5.1c-1.5,2.7-15.6,25.8-15.6,25.8"/>
		<path id="Stroke-89" class="st3" d="M220.3,149.8c0,0,7.4-2.2,14-1.9c6.7,0.3,19.8,6.1,21.6,4.9c1.8-1.2,4.8-7.1,13.6-10.2
			c3.5-1.2,19.1-5.3,23.3-6.2c4.2-0.9,8.5,0,8.5,0"/>
		<path id="Stroke-91" class="st3" d="M281.3,132.9c0,0-9.8,2.7-17.5,3.6c-7.8,0.9-18.5,4.4-18.5,4.4"/>
		<path id="Stroke-93" class="st3" d="M300.9,140.9c0,0-0.6,1.2,1.2,5.4c1.8,4.2,11.2,22.5,12.7,26.1c1.5,3.6,5.2,20.7,4.2,27.9
			c-0.9,7.2-9.7,35.7-17,46.2c-7.3,10.5-11.2,16.2-17.9,36c-6.7,19.8-14,42.3-14,42.3"/>
		<path id="Stroke-95" class="st3" d="M310.9,210.9c0,0,9.6-15.7-3.9-32.2s-15-14.5-23.1-16.9c-8.1-2.4-8.4-2.7-13.2,0
			c-4.8,2.7-21.6,15.4-21.6,15.4"/>
		<path id="Stroke-97" class="st3" d="M289.3,231.9c0,0,7.5-14.3,5.6-30.5c-1.9-16.2-0.3-21.7,5-20.3c4.8,1.3,8.4,11.4,5.2,19.3"/>
		<path id="Stroke-99" class="st3" d="M285.3,220.9c0,0,0,18.2-1.8,22.1c-1.8,3.9-6.2,6.9-6.2,6.9"/>
		<path id="Stroke-101" class="st3" d="M109.3,268.1c3.7,1.3,4.6,1.5,7.2,2.4c3.6,1.2,7.6,3,7.6,3s4.5,1.5,8.5,3.6
			c3.9,2.1,10,2.1,13,3.3c3,1.2,4.8,1.5,4.8,1.5s7.3-0.9,9.4,0.6c2.1,1.5,3.3,2.7,3.3,2.7s4.8-0.9,6.3,0.3c1.5,1.2,0.3-0.9,4.5-1.8
			c4.2-0.9,4.5-1.2,6.3,0.6c1.8,1.8,4.5,1.2,4.5,1.2s-1.2,1.2-2.1-2.1c-0.9-3.3,0.9-7.8,1.8-8.7c0.9-0.9,3-9.3,3.9-11.4
			c0.9-2.1-1.2-4.8,1.8-6c3-1.2,2.4-1.2,3.9-3c1.5-1.8,3.3-6.3,5.4-9.3c2.1-3,9.4-6,9.7-8.7c0.3-2.7,1.5-10.2,3.3-9.9
			c1.8,0.3,4.5,0,4.8-2.1c0.3-2.1-5.4-0.9,4.8-6.3"/>
		<path id="Stroke-103" class="st3" d="M277.3,247.9c0,0-2.1,11.2-2.7,13.3c-0.6,2.1-3.3,5.4-7.2,9.7c-3.9,4.2-12.9,19.6-15.9,25.4
			c-3,5.7-5.7,13.6-9.6,16.6c-3.9,3-9.9,18.1-19.8,22.3c-9.9,4.2-20.1,14.2-52.3,4.8c-32.2-9.4-57.7-18.1-60.4-19.9
			c-2.7-1.8-13.8-11.2-19.5-12.1c-5.7-0.9-10.2-0.9-15-1.5c-3.4-0.4-14.4-2.1-15.6-3.6c-2.4-3.1,1.8-13,5.1-25.4
			c3-11.1,2.4-13.6,7.8-19.6c5.4-6,7.8-3.3,12.6-0.9c0.7,0.4,1.5,0.8,2.4,1.2"/>
		<path id="Stroke-105" class="st3" d="M289.7,66.9c0,0,5.1-5.7,6.6-12.6c1.2-5.3,3.9-10.2,3.9-17.8c0-7.8-3.7-24.3-12.7-34.6
			c-10.5-12-15.5-13.5-27.1-15.6c-9.6-1.8-21.3,3.6-33.1,4.2c-21.9,1.1-20.2-4.5-20.2-4.5s-10.2,4.2-12.4,9.6
			c-1.7,4.3-0.3,17.1,13,24.7"/>
		<path id="Stroke-107" class="st3" d="M210.3,21.9c0,0,9.1,1.6,11.5,7.8c2.7,7.2,3.9,12.2,12.4,11.6c0.5,0,1.7,3.8,1.2,9.6
			c-0.3,3.5-3,9.9-3,9.9s5.1,0.6,9.3-0.3c2.5-0.5,7.6-19.4,7.6-19.4"/>
		<path id="Stroke-109" class="st3" d="M251.1,36.7c1.1-1.5,2.6-3,4.5-3.5c5.6-1.5,13.8,2.7,12.5,14.4c-1,9.3-6.6,11-11.3,13.2
			c-1.2,0.6-1.6,3.3-5,3.3c-1.4,0-2.2-0.9-2.2-0.9s-0.6,2.1-0.3,2.7"/>
		<path id="Stroke-111" class="st3" d="M253.5,47.4c-0.2-1.2-0.1-5.1,2.9-5.5c3-0.4,4.8,1.9,5.3,3.2c0.9,2.1,1.1,5.8-3.1,8.8
			c-4.5,3.2-6.4,4-6.4,4"/>
		<path id="Stroke-113" class="st3" d="M227.3,120.9c0,0-1.2,1.8-8.7,2.4c-5.4,0.4-16.2,0.7-21.9,0.8c-2.2,0-4,1.6-4.5,3.7
			c-1.3,5.7,0,16.6-0.7,20c-0.9,4.8-8.1,11.1-8.1,11.1"/>
		<path id="Stroke-115" class="st3" d="M228.3,130.9c0,0-4.5,1.5-9.1,5c-4.5,3.6-13.3,9.5-19.3,13.7c-6,4.2-13.6,11.3-13.6,11.3"/>
		<path id="Stroke-117" class="st3" d="M112.3,81.9c-13.9,3.3-11.5,6.4-15.5,11.4c-5.7,7.3-7.2,15.9-7.5,23.9
			c-0.3,7.9,3.6,19.7,3.6,19.7"/>
		<path id="Stroke-119" class="st3" d="M134.3,166.3c0,0,18.8,6,26.8,4.3c8-1.7,13.9-9.6,15.7-12.5c2.3-3.7,4.2-9.3,3.2-14.5
			c-1.4-7.1-4.6-13.8-4.3-18.1c0.1-2.2,0.7-10-0.6-16.6"/>
		<path id="Stroke-121" class="st3" d="M152.3,179.1c0,0-21.5-3.3-29.4,0c-7.9,3.3-25.8,15.3-28.8,19.5c-3,4.2-15.1,12.9-15.5,19.5
			c-0.3,6.6-0.6,13.2-3.9,15.6c-3.3,2.4-12.9-35.7-15.6-41.4c-2.7-5.7-3.1-18.4,3.9-22c7-3.6,13-6.2,23.5-7.2
			c21.2-2.1,33,8.7,41.2,9.3"/>
		<path id="Stroke-123" class="st3" d="M107.5,140.9c0,0-1.9-6.1-8.2-4.8c-6.1,1.2-5.4,8.1-4.5,10.3c0,0,2.1,5.7,6.1,8.7
			c3.9,3,7.3,2.4,9.4,2.1c2.1-0.3,3.6-1.8,3.6-1.8l6.4,4.5"/>
		<path id="Stroke-125" class="st3" d="M216.3,38.9c0,0-7.9-3.5-13.6-2.9c-3.8,0.4-5.4,2.3-5.4,2.3"/>
		<path id="Stroke-127" class="st3" d="M199.3,44.9c0,0,0-1.6,2.9-1.9c3.7-0.4,6.1,1,6.1,1"/>
		<path id="Stroke-129" class="st3" d="M101,143.9c0,0-2.1,3.8,0.9,7.2c1,1.1,2.3,1.6,3.5,1.8c1.5,0.3,2.5-1.5,1.5-2.6
			c-0.2-0.3-0.4-0.4-0.4-0.5c-1.6-2.5,0.7-3,0.7-3"/>
		<path id="Stroke-131" class="st3" d="M86.3,218.6c0,0,0.6,1.5,7.5,3c6.9,1.5,15.3,9.7,17.1,14.2c1.8,4.5,11.1,17.2,16.8,20.9
			c5.7,3.6,12.9,8.8,23.7,6.7c10.8-2.1,13.7-0.9,18.6-6.7c4.9-5.7,19.8-35.4,21-40.8c1.2-5.4,5.4-18.5,6.3-20s-4.5-6-4.5-6"/>
		<path id="Stroke-133" class="st3" d="M158.3,197.9c0,0,4.1-9.4,4.4-12.2c0.3-2.8-3.5-4.1,0-4.7c3.5-0.6,17.1,6.3,19.8,8.8
			c2.7,2.5,7.8,3.9,7.8,3.9"/>
		<path id="Stroke-135" class="st3" d="M156.3,199.9c0,0-2.4,1.2-4.2,3.2c-1.8,2-2.1,8.2-2.1,8.2s-5.1,1.2-6,0
			c-0.9-1.2-7.8-5.2-14.7,9.6"/>
		<path id="Stroke-137" class="st3" d="M155.3,189.6c0,0-3.6-7.3-19-3.8c-15.4,3.5-19,7-19,7"/>
		<path id="Stroke-139" class="st3" d="M189.1,190.9c0.8-3.7-1.8-5-1.8-5"/>
		<path id="Stroke-141" class="st3" d="M181.3,178.2c0,0,5.3-3.6,8.4-1.8c3.1,1.8,4.4,6,3.1,7.5c-1.2,1.5-3.4,0.9-3.4,0.9
			s-4.3-1.2-1.4-3.3"/>
		<path id="Stroke-143" class="st3" d="M190.3,174.9L190.3,174.9c0-0.8-0.2-1.5-0.7-2.1c-0.4-0.6-1.3-0.7-2.1-1
			c-1.5-0.6-3.4-1.7-6.2,0.3c-2.8,2-4,2.9-4,2.9"/>
		<path id="Stroke-145" class="st3" d="M187.3,169.3c-0.9-3.1-6.1-2.3-6.1-2.3s-2.8,0.3-4.4,1.1c-1.6,0.8-4.4,2.8-4.4,2.8"/>
		<path id="Stroke-147" class="st3" d="M166.3,180.9c0,0,0.6-3.4,0.9-6.5c0.2-1.8,0.8-4,3.1-5.6c1.6-1.2,5-2,5.9-2.5
			c1.2-0.6,2.2-0.5,3.1-0.2"/>
		<path id="Stroke-149" class="st3" d="M159.9,122.9c0,0-2.6,4.8-2.6,6.6c0,2.7,2.6,6,4.6,8.4c0.8,1,3.3,3.3,2,5.4
			c-1.3,2.1-3,2.7-3,2.7"/>
		<path id="Stroke-151" class="st3" d="M162.3,128.9c0,0,1.7-1.7,3.9-1.9c3.4-0.4,5.1,1,5.1,1"/>
		<path id="Stroke-153" class="st3" d="M145.3,130.1c0,0-1.8-1.6-6.2-1.1c-2.5,0.3-5.8,1.9-5.8,1.9"/>
		<path id="Stroke-155" class="st3" d="M164.3,154.9c0,0-4.1,0.7-6.7,0.9c-2.5,0.2-6.3,0-6.3,0"/>
		<path id="Stroke-157" class="st3" d="M6.3,209.9c0,0,4.6-2.3,11.7-3c10.1-1.1,20.1-5.4,25.2-11.8c4-5,2.6-12.2,2.6-12.2l4.5,11.8"
			/>
		<path id="Stroke-159" class="st3" d="M50.2,295.9c0,0-3,0-4.5-8.8c-0.1-0.7-1.9-7.1-2.1-10.9c-0.2-4.7-0.6-4.8,0-7.3
			c1-4.5,0.8-8.5,2.1-12.8c1.8-6.1,10.2-8.9,12-10.6c7.2-7,12.6-8.5,12.6-8.5"/>
		<path id="Stroke-161" class="st3" d="M75.3,239.9c-0.5,0.3,2.4,13.4,2.9,15"/>
		<path id="Stroke-163" class="st3" d="M33.3,238.9c0.4,0.9,0.7,1.7,0.9,2.5c0.9,2.9,4.7,6.9,6.7,9c1.3,1.4,2.4,4.5,2.4,4.5"/>
		<path id="Stroke-165" class="st3" d="M6.3,209.9c3,5.5,8.2,8.3,13,11"/>
		<path id="Stroke-167" class="st3" d="M169.3,107.7c0,0-6.3,6.1-24.1,1.2c-5.7-1.6-11.8-4.9-19.9-14.1"/>
		<path id="Stroke-169" class="st3" d="M124.3,95.9c-0.9,6.8-11.2,13.3-17.3,13.9c-6.6,0.6-8.7-1.2-8.7-1.2"/>
		<path id="Stroke-171" class="st3" d="M223,301.9c0,0,2.4-13.2-7.1-25.2c-9.1-11.6-16.2-17.4-15.6-11.4c0.6,6,12.1,14.7,12.4,21.6"
			/>
		<path id="Stroke-181" class="st3" d="M124.3,97.9c0,0-0.2,3.8-1.5,6.8c-2.8,6.8-8.5,9.2-8.5,9.2"/>
		<path id="Stroke-183" class="st3" d="M273.3,148.9v7"/>
		<path id="Stroke-185" class="st3" d="M225.3,214.9c0,0,10.3,5.1,22,9"/>
		<path id="Stroke-187" class="st3" d="M230.3,211.1c0,0,9.3-1.8,15.3-1c6,0.8,15.7,4.8,15.7,4.8"/>
		<path id="Stroke-189" class="st3" d="M228.3,205.9c0,0,4.8-9.3,13-19"/>
		<path id="Stroke-191" class="st3" d="M180.3,251.9l2,20"/>
		<path id="Stroke-193" class="st3" d="M111.3,159.9l1,4"/>
		<path id="Stroke-195" class="st3" d="M163.3,162.2c0,0-1.5-1.3-3.6-1.3c-2.1,0-4.4,2-4.4,2"/>
		<path id="Stroke-197" class="st3" d="M101.2,111.9c0,0,0.3,6.5-1.2,11.7c-1.6,5.2-3.7,8.3-3.7,8.3"/>
		<path id="Stroke-199" class="st3" d="M261.4,62.9c0,0-3.4,8.7,1.8,12.2c9.3,6.3,13.1,15.8,13.1,15.8"/>
		<path id="Stroke-201" class="st3" d="M207.3,75.9c0,0,1.3,0.7,2,2"/>
		<path id="Stroke-203" class="st3" d="M176.3,104.9c-1.3-6.6-4.6-13.4-10.4-18.2c-11.9-9.9-18.5-13.2-33.1-10.2
			c-8.6,1.8-9.7-1.5-12.5-2.6"/>
		<path id="Stroke-205" class="st3" d="M120.3,77.9c0,0-3.8-1.2-7-1"/>
		<path id="Stroke-207" class="st3" d="M189.3,65.9l3,1"/>
		<path id="Stroke-209" class="st3" d="M132.3,124.9c0,0,3.5-2.7,7.8-3c4.4-0.3,7.2,0.9,7.2,0.9"/>
		<path id="Stroke-211" class="st3" d="M163.3,119.4c0.7-0.2,1.5-0.4,2.5-0.5c3.1-0.2,6.5,1,6.5,1"/>
		<path id="Stroke-213" class="st3" d="M136.3,206.9c0,0-8.7,4-12.1,10.4c-3.4,6.4-5.6,5.5-4.7,1.2"/>
		<path id="Stroke-215" class="st3" d="M102.5,263.8l-0.4-0.2l-7.5-3.2c-1.6-0.7-3.3-0.6-4.8,0.2c-3.5,1.9-9.4,6.3-11.9,14.5
			c-3.2,10.6-4.2,15.7-4.6,17.7c-0.1,0.7-0.1,1.3,0.1,2l2.4,8.1l8.6-3.2c1.3-0.5,2.2-1.5,2.6-2.9c1.2-4.4,4.1-14.3,5.9-18.4
			c2.8-6.3,7.1-10.1,9.7-11.9C103.5,265.8,103.5,264.4,102.5,263.8z"/>
		<path id="Stroke-219" class="st3" d="M234.3,41.9l7,1"/>
		<path id="Stroke-221" class="st3" d="M53.6,196.3l4.7,9.9c0.7,1.5,1,3.1,0.9,4.8c-0.2,3.2,0.8,10.6-5.6,16
			c-12.3,10.3-24,8.1-24.9,7l-7.1-8.4c-0.7-0.7-0.2-2,0.8-1.9c4,0.4,10.9-0.4,20.9-7.2c8.1-5.5,9.1-14.7,9-19.8
			C52.3,195.8,53.3,195.6,53.6,196.3z"/>
		<path id="Stroke-223" class="st3" d="M7.3,201.9c0,0-0.5,0.6-0.7,1.5c-0.2,0.9-0.3,3.5-0.3,3.5"/>
		<path id="Stroke-225" class="st3" d="M46.3,182.9c0,0-0.7-2-4-2"/>
		<path id="Stroke-227" class="st3" d="M42.3,241.6c0,0,9.4-4.8,7.8-1.6c-1.6,3.2-5.5,4.4-4.6,5.9"/>
		<path id="Stroke-229" class="st3" d="M42.3,185.9c-2.1-5-5.5-20.6-6.5-27.6c-0.9-6.3-10.8-10.8-17.3-18.7
			c-0.6-0.7-1.5-0.9-2.4-0.8c-1.1,0.1-2.1,0.8-2.7,3.1c-0.5,2,0.7,4.1,2,5.9c3.4,4.9,8.8,8.3,8.8,8.3s-1.3,1-0.5,10.2
			c0.5,5.9,3.4,8.3,3.4,8.3"/>
		<path id="Stroke-231" class="st3" d="M12.3,202.9c0,0-2.3-5.1-5.4-5.9c-3.1-0.8-10.2-3.4-14-5.6c-3-1.7-5.8-3.9-8.1-6.8
			c-1.2-1.5-7.4-11.3-2.8-14.4c1-0.7,2.1-1.9,4.6-3.5c1-0.6,4.4-3.8,5.4-2.6c1,1.1,1.7,3.1-1.1,6.1c-0.6,0.6-2.8,2.3-3,3.1
			c-0.2,1,1.5,2.3,2.2,3.7"/>
		<path id="Stroke-233" class="st3" d="M-20.8,174.9c0,0-3.5-3.7-3.7-5c-0.2-1.3-0.7-2.7,1-4.4c1.9-1.9,2.9-3.3,3.8-4.5
			c4.4-5.6,5.7-5.5,6.9-4.5c0.7,0.6,1.7,2.5,0.4,4.9"/>
		<path id="Stroke-235" class="st3" d="M-25.1,162.9c0,0-1.1-2.9-1.4-4.4c-0.3-1.5-0.3-4.4,0-5.2c0.3-0.9-0.2-1.1,2.8-3.5
			c1-0.8,3.8-3,4.5-1.2c0.2,0.6,1.4,2.6-1.1,5.5c-1.9,2.1-1.7,2.6-1.7,2.6"/>
		<path id="Stroke-237" class="st3" d="M-26.7,147.9c0,0-3.6-3.5-5.7-5.8c-1.9-2.1-1.7-5.7,0.7-6.2"/>
		<path id="Stroke-239" class="st3" d="M3.3,178.4c0,0,5.7-3.7,13.1,0.3c6.4,3.4,8.9,9.2,8.9,9.2"/>
		<path id="Stroke-241" class="st3" d="M-22.4,145.9l-5.5-8.7c-1.5-2.3-0.8-5.5,1.5-7l19.5-12.5c2.3-1.5,5.4-0.8,6.9,1.5l11.2,19.3"
			/>
		<path id="Stroke-243" class="st3" d="M-7.7,171l1.3,1.9c1.4,2,4,2.6,6,1.3l14.7-9.3"/>
		<path id="Stroke-245" class="st3" d="M-10.7,120.9l25,42"/>
		<path id="Stroke-247" class="st3" d="M-16.7,122.9l25,42"/>
	</g>
</g>
<rect class="st4" width="363.3" height="367.3"/>
</svg>
