<?xml version="1.0" encoding="utf-8"?>
<!-- Generator: Adobe Illustrator 22.1.0, SVG Export Plug-In . SVG Version: 6.00 Build 0)  -->
<svg version="1.1" id="Layer_1" xmlns="http://www.w3.org/2000/svg" xmlns:xlink="http://www.w3.org/1999/xlink" x="0px" y="0px"
	 viewBox="0 0 361 524" style="enable-background:new 0 0 361 524;" xml:space="preserve">
<style type="text/css">
	.st0{fill:#E6E6E6;}
	.st1{filter:url(#Adobe_OpacityMaskFilter);}
	.st2{fill:#FFFFFF;}
	.st3{mask:url(#mask-2_1_);fill:#E6E6E6;}
	.st4{fill:none;stroke:#F56100;stroke-width:3;stroke-linecap:round;stroke-linejoin:round;}
	.st5{fill:#50A5D8;}
	.st6{font-family:'INGMe';}
	.st7{font-size:24px;}
</style>
<title>Group 45</title>
<desc>Created with Sketch.</desc>
<g id="PROTOTYPE">
	<g id="Group-45" transform="translate(1.000000, 0.000000)">
		<g id="Page-1" transform="translate(0.000000, 153.000000)">
			<path id="Fill-1" class="st0" d="M265,185.2l0.1,9.9c0.2,9.9,9.3,55.6,9.3,55.6l-17.5,5.5c0,0,0-8,2-16s-5-20-9-39s4-34,4-34
				L265,185.2z"/>
			<path id="Fill-3" class="st0" d="M117,68.2l19-5c0,0-6,9-17,10c-5.5,0.5-10.7,0.2-10.7,0.2l-3-8.6L117,68.2z"/>
			<path id="Fill-5" class="st0" d="M187,26.2c-0.2-1.3-0.4,13.9-7,18c-8,5-12.6,8.4-16,10c-8.8,4.1-12-3-12-3l14,14l5,14l4-2l1-21
				h4l9-8L187,26.2z"/>
			<path id="Fill-7" class="st0" d="M194.5,313.7c-11-6-10.5-20.5-10.5-20.5s0,8,7.5,8.5l7.5,0.5L194.5,313.7z"/>
			<path id="Fill-9" class="st0" d="M192.8,282.9c-0.5-4.2-3.3-7.7-7.4-9c-5.2-1.7-12.3-3.7-16.4-3.7c-3.8,0-11.1,2.3-22,2
				c-9-0.3-20.9-3-31-5c-5-1,7,9,39,13c17.1,2.1,38,5,38,5L192.8,282.9z"/>
			<path id="Fill-11" class="st0" d="M190.7,248.8c3.3-0.1,6.6,0.1,9.9,0.7c-7.8-30.4-14.8-59.4-18.1-76.8l2.5,50.6
				C186.3,229.7,188.3,238.6,190.7,248.8"/>
			<g id="Group-15" transform="translate(207.000000, 315.179000)">
				<g id="Fill-13-Clipped">
					<g id="path-1_1_">
					</g>
					<defs>
						<filter id="Adobe_OpacityMaskFilter" filterUnits="userSpaceOnUse" x="0.5" y="0.7" width="22.5" height="54.3">
							<feColorMatrix  type="matrix" values="1 0 0 0 0  0 1 0 0 0  0 0 1 0 0  0 0 0 1 0"/>
						</filter>
					</defs>
					<mask maskUnits="userSpaceOnUse" x="0.5" y="0.7" width="22.5" height="54.3" id="mask-2_1_">
						<g class="st1">
							<polygon id="path-1_2_" class="st2" points="0.5,0.7 23,0.7 23,55 0.5,55 							"/>
						</g>
					</mask>
					<path id="Fill-13" class="st3" d="M5.6,2.4C1.9,1.9,4.2,1.3,0.5,0.7C7.3,27.6,13,49.7,13,51l10,4C23,55,13.8,32.7,5.6,2.4"/>
				</g>
			</g>
			<path id="Fill-16" class="st0" d="M140,279.5l-6.4,77.1c-0.3,3.7-4.2,6.1-7.6,4.6l7.5-87.5L140,279.5z"/>
			<path id="Fill-18" class="st0" d="M198.7,295.6c0,0,2.1,7.5,7.3,8.1c11,1.3,32.4-3.6,51.5-4c28.7-0.6,52.3-1.9,63-4.3
				c15.7-3.6,11-8.7,11-8.7s-3.7,9-9,15c-5.4,6.1-23.4,4.9-55.3,5.5c-29.9,0.6-72.7,5.5-72.7,5.5L198.7,295.6z"/>
			<path id="Fill-20" class="st0" d="M283.7,306.7l-71.2,4l4.5,10.8l47.6-3.7c5.2-0.4,10.2,1.9,13.3,6.1l23,31.3l-15-39.5
				L283.7,306.7z"/>
			<path id="Fill-22" class="st0" d="M162.5,162.4l-10.4,51.3c-0.1,0.3-0.3,0.5-0.5,0.6l-3.6,0.9l11-63L162.5,162.4z"/>
			<path id="Fill-24" class="st0" d="M184,93.2c0,0,2,4,3,11s-7,22-7,22l-6.6,7.9c-1.5,2.3-4.9,2-6.1-0.4l-2.8-1.9l13.5-17
				c1.3-1.6,2.2-3.5,2.6-5.6L184,93.2z"/>
			<path id="Stroke-26" class="st4" d="M280.5,251.7c0,0-11-2-15,0s-12,6-21,4c-9-2-18-1-28,0c-4.5,0.4-31-4-31-4l3.4,4.3
				c2.5,3.2,4.4,6.9,5.5,10.8c1.3,4.4,3,10.5,4.1,15.9c2,10-2.5,30.5-2.5,30.5s57-7,85-6s39-2,42-5s12-17,14-24s-2.4-21.7-3-27
				c-1.5-12.5-19-63-23-79s-9-32-17-38s-13-5-20-8s-51-14-51-14L210,101c-0.9-0.7-2.1-0.7-2.9,0.2c-2.4,2.6-7.4,8.2-11.6,13.5
				c-8,10-21,32-21,32l7,14l17,86"/>
			<path id="Stroke-28" class="st4" d="M273.5,240.3c-0.8-5-6.5-26.4-8.3-34.2c-1.8-7.9-0.6-19-0.6-19"/>
			<path id="Stroke-30" class="st4" d="M182.5,288.7c0,0,1.1,8.6,3.4,15.8c2.6,8.2,8.6,8.8,8.6,8.8"/>
			<path id="Stroke-32" class="st4" d="M113.5,196.7c0,0,0.5-15.5,2.5-18.5s5-15.6,14-21c7.5-4.5,12.5-4.5,17-8c4.2-3.3,13-10,13-10
				l-10.5,14.5l7,13c0,0-3.4,19.3-5,26c-3,13-3,22-3,22"/>
			<path id="Stroke-34" class="st4" d="M104.5,263.7c0,0-3.8,27.3-0.9,37.7c2.9,10.3-1.1,44.3-1.1,44.3s-4,13,0,16"/>
			<polyline id="Stroke-36" class="st4" points="285.6,311.7 287.1,321.5 297.5,349.7 303.4,361.7 			"/>
			<path id="Stroke-38" class="st4" d="M180.3,249.5c-2.6,0-7.7-4.3-14.5-12.8c-6.8-8.5-6-12.8-12.8-12.8c-6.8,0-14.5-1.7-17.9,0
				c-3.4,1.7-3.4,6.8-3.4,6.8"/>
			<path id="Stroke-40" class="st4" d="M145.5,232c-4-0.3-10.9-0.9-18.5-0.9c-12.6,0.1-33.5-4.5-33.7,0.7c-0.1,5.2,3.6,6.9,9.1,7.8
				c18.8,3,23,3,32.2,4.3"/>
			<path id="Stroke-42" class="st4" d="M95.9,241.8c0,0-2.4,3.9,6.6,6.9c4.6,1.5,8,2,16.9,3.5c7.2,1.2,14.1,2.5,14.1,2.5"/>
			<path id="Stroke-44" class="st4" d="M131.5,264.7c0,0-6.1-1.4-13-3c-21-5-19-9-19-9"/>
			<path id="Stroke-46" class="st4" d="M114.5,265.7c0,0-1,4,5,6c4.8,1.6,27.1,9.7,33.9,8c6.8-1.7,13.6-1.7,13.6-1.7l25.4,7.7"/>
			<path id="Stroke-48" class="st4" d="M192.5,79.7l2.5,7.5c4,11,8.5,18.5,8.5,18.5"/>
			<path id="Stroke-50" class="st4" d="M180,56.2c0,0-0.5-4.5,5-5c7.5-0.7,7.5,4.5,8.5,8.5s2.5,10.5-1.5,14.5c-4.5,4.5-7,5-7,5"/>
			<path id="Stroke-52" class="st4" d="M176.5,56.7L175,77.2l-4,2l-5-14l-14-14l-0.4-0.4c-1.1-1.1-2.8-1.3-4.1-0.5
				c-2,1.1-6,2.9-14,5.4c-3.4,1.1-16,2-16,2c11,5,19,2,19,2s0,5-11,7c-17.8,3.2-27-1-31-6s-7-17,14-38c9.6-9.6,20-16.5,24-18
				c8-3,24-9,37,3c15.5,14.3,19,21,19,26v14"/>
			<path id="Stroke-54" class="st4" d="M182,61.2v4c0,0,3,0,3,2s-4,5-2,6"/>
			<path id="Stroke-56" class="st4" d="M107.5,68.7c0,0,4,19,7,21s6,3,6,6s1,12,7,17s12,12,15,16s2,4,5,6s13.6,0.9,17-2
				c6.4-5.4,8.1-12,12-17c10.1-12.9,7-23,7-23"/>
			<path id="Stroke-58" class="st4" d="M139,86.2c0,0,4-1,7-2s4-3,4-3"/>
			<path id="Stroke-60" class="st4" d="M116.4,90.9c0,0,8.1-1.2,12.1-2.2"/>
			<path id="Stroke-62" class="st4" d="M142.5,121.7c0,0,0.9,0.5,7-1c4-1,6-4,6-4"/>
			<path id="Stroke-64" class="st4" d="M128.5,89.7l3.3,18.7c0.4,2,2.7,3.1,4.4,2l7.3-1.7"/>
			<path id="Stroke-66" class="st4" d="M133.5,284.7l-8,76"/>
			<path id="Stroke-68" class="st4" d="M125.5,360.7l-5-88"/>
			<path id="Stroke-70" class="st4" d="M119.5,203.7l0.6-19.1"/>
			<path id="Stroke-72" class="st4" d="M131.5,230.7l-19.2-26.3c-1.7-2.3-4.5-3.5-7.3-3.1l-19.4,2.6c-2.7,0.4-4,3.5-2.3,5.6
				l11.3,15.2"/>
			<path id="Stroke-74" class="st4" d="M227.5,363.7l-15-48"/>
			<path id="Stroke-76" class="st4" d="M216.5,116.7c0,0-2.3-1-13,15c-6,9-14,26-14,26"/>
			<path id="Stroke-78" class="st4" d="M179.5,158.7l-11,26c0,0-8-31-9.5-32.9"/>
			<path id="Stroke-80" class="st4" d="M95.1,208.9c0.7,1,0.5,2.4-0.5,3.1c-1,0.7-2.3,0.4-3-0.6c-0.7-1-0.5-2.4,0.5-3.1
				C93.1,207.6,94.4,207.9,95.1,208.9z"/>
			<path id="Stroke-82" class="st4" d="M244.5,255.7c0,0,9,5,17,8"/>
			<path id="Stroke-84" class="st4" d="M253.5,167.7c0,0,0,8,8,13"/>
			<path id="Stroke-86" class="st4" d="M65.6,190.7H4.4c-2.1,0-3.9-1.7-3.9-3.9v-42.2c0-2.1,1.7-3.9,3.9-3.9h61.2
				c2.1,0,3.9,1.7,3.9,3.9v42.2C69.5,188.9,67.8,190.7,65.6,190.7z"/>
			<path id="Stroke-88" class="st4" d="M11.5,151.7h47"/>
			<path id="Stroke-90" class="st4" d="M11.5,160.7h47"/>
			<path id="Stroke-92" class="st4" d="M11.5,169.7h47"/>
			<path id="Stroke-94" class="st4" d="M11.5,178.7h27"/>
			<path id="Stroke-96" class="st4" d="M68.5,190.7l10,10"/>
			<path id="Stroke-98" class="st4" d="M167.3,133.6l-4.8,14.1"/>
			<path id="Stroke-100" class="st4" d="M132.5,78.7c3-4,3.9-4.5,10-6c4-1,7-2,7-2"/>
			<path id="Stroke-102" class="st4" d="M124.5,82.7h-12"/>
		</g>
		<path id="Fill-268-Copy-6" class="st5" d="M336.4,0c6.8,0,10.2,0,13.9,1.5c4,1.9,7.1,6,8.6,11.3c1.2,4.8,1.2,9.3,1.2,18.3V79
			c0,8.9,0,13.4-1.2,18.2c-1.5,5.3-4.6,9.4-8.6,11.3c-3.7,1.5-7.1,1.5-14,1.5H81.6c-6.8,0-10.2,0-13.9-1.5c-4-1.9-7.1-6-8.6-11.3
			C58,92.4,58,87.9,58,78.8V31c0-8.9,0-13.4,1.2-18.2c1.5-5.3,4.6-9.4,8.6-11.3C71.4,0,74.9,0,81.7,0H336.4z"/>
		<path id="Fill-270-Copy-6" class="st5" d="M204.3,81.4l10.3,15.9c1.5,2.1,2.3,3.1,2.9,4.6c0.6,1.7,0.6,3.6,0,5.2
			c-0.6,1.5-1.3,2.5-2.9,4.6l-10.3,13.9c-1.5,2.1-2.3,3.1-3.4,3.9c-1.2,0.8-2.7,0.8-3.9,0c-1.1-0.8-1.9-1.8-3.4-3.9l-10.3-13.9
			c-1.5-2.1-2.3-3.1-2.9-4.6c-0.6-1.7-0.6-3.6,0-5.2c0.6-1.5,1.3-2.5,2.9-4.6l10.3-13.9c1.5-2.1,2.3-3.1,3.4-3.9
			c1.2-0.8,2.7-0.8,3.9,0c1.1,0.8,1.9,1.8,3.4,3.9L204.3,81.4z"/>
		<text transform="matrix(1 0 0 1 91 48)" class="st2 st6 st7">“A aparut o eroare in</text>
		<text transform="matrix(1 0 0 1 91 79)" class="st2 st6 st7">aplicatie!”</text>
	</g>
</g>
</svg>
